<?xml version="1.0" encoding="utf-8" ?><svg xmlns="http://www.w3.org/2000/svg" xmlns:xlink="http://www.w3.org/1999/xlink" width="1024" height="1024" viewBox="0 0 1024 1024"><defs><linearGradient id="gradient_0" gradientUnits="userSpaceOnUse" x1="683.98981" y1="987.00372" x2="339.35434" y2="39.822895"><stop offset="0" stop-color="#2A2644"/><stop offset="1" stop-color="#505B70"/></linearGradient></defs><path fill="url(#gradient_0)" d="M141.22 164.914C144.652 160.26 151.649 153.858 155.94 149.575C248.982 56.733 380.29 2.6818 511.933 5.22289C538.989 5.74515 563.762 6.3966 590.336 11.2514C597.416 12.088 603.78 13.8411 610.7 15.1771C640.929 21.0131 672.578 30.3778 701.169 41.8888C704.609 43.2872 708.307 44.2059 711.729 45.6259C716.009 47.4021 720.189 50.4129 724.413 52.2128C738.206 58.0906 750.491 64.2662 763.343 72.0533C771.39 76.9289 780.285 81.3143 788.019 86.9325C793.876 90.7157 805.336 97.9183 810.423 102.306C820.906 108.718 825.213 113.445 834.329 120.69C853.636 136.033 871.493 153.192 888.605 170.93C895.717 178.302 903.248 188.43 909.688 196.361C926.238 216.74 941.573 237.618 953.881 260.894C957.564 267.859 963.372 277.579 966.379 284.73C971.863 294.248 991.063 339.521 992.435 348.547C999.445 363.645 1004.58 386.451 1008.1 402.823C1026.82 489.866 1022.32 578.241 996.978 663.302C937.981 861.32 755.077 1007.23 549.381 1022.63C544.041 1023.03 534.32 1023.05 529.466 1024L488.525 1024C485.113 1023.41 480.79 1023.52 477.267 1023.3C442.345 1021.13 403.705 1015.14 370.335 1004.95C363.337 1002.73 353.455 999.25 346.61 997.62C337.985 993.965 326.456 990.889 318.529 986.418C288.87 976.657 243.767 950.272 218.624 931.957C107.398 850.939 33.1838 734.015 11.2235 597.874C8.96125 590.953 7.33306 570.281 6.31392 562.413C5.59157 554.857 4.8981 546.233 4.61678 538.693C2.98466 494.946 5.20683 455.033 13.9795 412.077C27.1618 344.672 54.0694 281.64 92.8395 225.009C108.364 202.331 122.343 185.166 141.22 164.914Z"/><defs><linearGradient id="gradient_1" gradientUnits="userSpaceOnUse" x1="558.03857" y1="1005.8073" x2="465.12158" y2="22.677532"><stop offset="0" stop-color="#786DA5"/><stop offset="1" stop-color="#63C5B7"/></linearGradient></defs><path fill="url(#gradient_1)" d="M826.118 132.498C843.694 148.981 860.441 162.95 877.076 180.901C1012.44 326.969 1041.23 547.365 955.448 726.057C912.124 816.305 848.171 886.096 762.885 938.572C622.898 1024.7 443.158 1032.31 295.798 959.875C155.713 891.258 60.0336 763.063 28.8134 610.793C-11.1752 415.757 70.9464 213.612 236.786 103.241C270.884 80.5478 305.561 61.8879 344.558 48.6503C438.357 15.7428 540.503 11.1517 636.794 35.9519C650.129 39.385 681.788 48.8279 694.135 54.8376C702.016 57.3371 715.086 63.136 722.531 66.9491C726.458 68.8772 746.543 78.1951 748.197 80.1465C752.986 82.5041 758.838 85.2404 763.102 88.3397C773.519 94.2752 783.051 100.551 792.959 107.303C794.011 108.242 827.081 132.919 826.118 132.498Z"/><path fill="#74C8B5" d="M694.135 54.8376C702.016 57.3371 715.086 63.136 722.531 66.9491L722.291 67.6284L718.955 66.1496C716.837 65.2023 713.256 66.2233 710.51 66.5484C709.285 65.1469 708.612 63.1678 707.87 61.4227C705.182 59.3871 697.572 57.1769 694.136 55.5473L694.135 54.8376Z"/><path fill="#74C9B9" d="M748.197 80.1465C752.986 82.5041 758.838 85.2404 763.102 88.3397L763.017 89.0364C759.081 86.6012 753.301 87.7831 751.133 84.5338L752.233 83.1559C750.26 82.3197 748.928 81.8856 748.197 80.1465Z"/><path fill="#172237" d="M101.745 755.691C-31.5828 529.655 43.3858 238.342 269.264 104.746C495.142 -28.8492 786.544 45.7748 920.407 271.495C1054.27 497.215 979.99 788.705 754.428 922.834C528.867 1056.96 237.289 983.029 102.893 757.627C102.509 756.982 102.126 756.337 101.745 755.691Z"/><path fill="#15182A" d="M109.136 281.86C223.994 82.8599 467.062 -2.29921 681.002 81.5072C807.235 130.957 905.573 233.076 950.227 361.085C1020.89 563.653 943.667 788.265 763.378 904.555C583.09 1020.84 346.621 998.571 191.217 850.662C35.8143 702.752 1.89081 467.672 109.136 281.86Z"/><defs><linearGradient id="gradient_2" gradientUnits="userSpaceOnUse" x1="652.52917" y1="956.26544" x2="408.29953" y2="188.01102"><stop offset="0" stop-color="#626993"/><stop offset="1" stop-color="#5FA6B2"/></linearGradient></defs><path fill="url(#gradient_2)" d="M109.136 281.86C109.845 282.641 110.481 282.893 110.249 283.804C109.481 286.827 109.765 288.619 109.773 291.418C7.4993 475.628 43.6482 705.797 197.467 849.787C351.286 993.777 583.337 1014.67 760.403 900.473C937.469 786.276 1014.15 566.267 946.428 366.75C948.146 364.911 936.073 342.352 938.052 338.089C938.687 336.721 937.485 334.947 938.499 333.622C941.339 337.845 947.025 355.489 949.871 361.583L950.227 361.085C1020.89 563.653 943.667 788.265 763.378 904.555C583.09 1020.84 346.621 998.571 191.217 850.662C35.8143 702.752 1.89081 467.672 109.136 281.86Z"/><path fill="#74C9B9" d="M109.136 281.86C223.994 82.8599 467.062 -2.29921 681.002 81.5072C680.419 83.136 679.642 85.1209 679.244 86.7721C464.958 2.67352 221.513 90.1584 109.773 291.418C109.765 288.619 109.481 286.827 110.249 283.804C110.481 282.893 109.845 282.641 109.136 281.86Z"/><defs><linearGradient id="gradient_3" gradientUnits="userSpaceOnUse" x1="796.1311" y1="227.59586" x2="835.02563" y2="178.19258"><stop offset="0" stop-color="#849DC6"/><stop offset="1" stop-color="#72EBD2"/></linearGradient></defs><path fill="url(#gradient_3)" d="M681.002 81.5072C807.235 130.957 905.573 233.076 950.227 361.085L949.871 361.583C947.025 355.489 941.339 337.845 938.499 333.622C937.485 334.947 938.687 336.721 938.052 338.089C936.073 342.352 948.146 364.911 946.428 366.75C902.941 238.633 805.189 136.2 679.244 86.7721C679.642 85.1209 680.419 83.136 681.002 81.5072Z"/><defs><linearGradient id="gradient_4" gradientUnits="userSpaceOnUse" x1="625.1889" y1="252.66135" x2="531.49078" y2="481.13663"><stop offset="0" stop-color="#E48839"/><stop offset="1" stop-color="#D95763"/></linearGradient></defs><path fill="url(#gradient_4)" d="M530.236 255.884C535.765 239.921 558.27 232.547 573.62 233.381C582.34 233.855 591.684 237.175 598.674 242.382C608.848 249.897 613.301 255.873 617.398 267.998C618.7 271.07 620.48 270.189 623.621 270.038C638.679 269.668 650.46 274.007 661.796 283.97C664.728 286.547 666.984 289.708 665.777 293.555C664.717 297.631 664.373 299.902 664.142 304.18C668.453 309.725 670.772 310.963 677.811 311.23C680.781 314.576 679.209 322.445 676.614 325.667C676.359 329.263 676.005 333.18 675.87 336.754C678.624 337.237 680.764 337.659 683.497 338.336C673.285 373.794 649.566 405.403 622.452 429.882C619.03 432.972 609.27 441.733 605.573 443.236C599.977 447.699 592.139 453.374 585.921 456.715C572.708 465.114 542.048 477.108 526.459 481.024C526.191 467.439 526.556 452.472 526.584 438.751L526.512 357.15L526.515 301.745C526.486 288.975 524.712 266.905 530.236 255.884Z"/><path fill="#D6905F" d="M623.621 270.038C638.679 269.668 650.46 274.007 661.796 283.97C664.728 286.547 666.984 289.708 665.777 293.555C662.509 289.179 656.859 283.602 651.929 281.338L644.053 282.979C645.389 281.747 647.107 280.496 647.551 278.837C647.129 277.471 646.509 277.155 645.401 276.226L644.972 275.872C646.201 275.794 645.697 276.047 646.595 275.339C643.668 271.079 627.472 271.907 623.621 270.038Z"/><path fill="#D6905F" d="M530.236 255.884C535.765 239.921 558.27 232.547 573.62 233.381C582.34 233.855 591.684 237.175 598.674 242.382L597.944 242.834C580.668 230.623 556.168 231.679 539.545 244.945C537.994 246.183 535.248 248.741 534.179 250.295C538.638 249.618 538.846 247.211 542.13 245.905L541.433 245.162L541.316 244.701C544.73 243.837 557.091 242.454 558.544 241.758L558.765 242.425C555.334 244.366 547.636 242.809 542.494 246.051C535.958 250.172 539.254 257.291 533.397 252.493L532.968 252.501L532.688 253.008C531.857 254.483 531.706 255.04 530.236 255.884Z"/><path fill="#DFAC7E" d="M598.674 242.382C608.848 249.897 613.301 255.873 617.398 267.998C616.148 268.373 616.588 268.306 615.308 268.277C610.428 264.957 607.166 257.077 604.061 251.901C602.64 249.553 601.53 248.711 599.346 247.112C596.078 244.963 593.922 243.076 589.89 242.75C598.894 240.986 604.057 253.508 607.499 253.656L607.601 252.676C605.901 248.218 601.705 246.292 597.944 242.834L598.674 242.382Z"/><path fill="#D6905F" d="M664.142 304.18C668.453 309.725 670.772 310.963 677.811 311.23C680.781 314.576 679.209 322.445 676.614 325.667L676.979 321.418C675.461 318.058 675.027 317.07 674.191 313.488C668.754 312.699 661.208 311.705 664.142 304.18Z"/><path fill="#172237" d="M677.811 311.23C680.781 314.576 679.209 322.445 676.614 325.667L676.979 321.418C677.183 317.872 677.409 314.756 677.811 311.23Z"/><path fill="#CE5D67" d="M597.613 447.9C600.303 445.852 602.325 443.981 605.573 443.236C599.977 447.699 592.139 453.374 585.921 456.715C586.752 455.315 587.474 455.008 588.456 453.8L586.745 453.322C589.184 452.527 590.074 451.895 591.992 450.262C595.143 448.782 597.727 446.443 600.502 444.267L600.681 444.454L597.613 447.9Z"/><path fill="#D6905F" d="M599.346 247.112C601.53 248.711 602.64 249.553 604.061 251.901C601.655 252.621 600.218 253.373 598.345 251.347C598.03 249.505 598.563 248.823 599.346 247.112Z"/><path fill="#D9756B" d="M586.745 453.322C586.675 451.104 586.334 452.004 587.444 450.417C589.154 449.674 590.134 450.009 591.992 450.262C590.074 451.895 589.184 452.527 586.745 453.322Z"/><path fill="#172237" d="M571.42 316.552L576.236 315.925L575.54 315.846C580.522 315.601 587.997 317.016 589.916 322.386C598.801 330.461 602.359 331.639 607.561 343.927C615.556 341.463 620.063 340.418 628.511 341.908C631.756 339.84 643.021 340.77 645.784 344.055C646.259 345.541 646.11 346.434 645.474 347.919C646.675 348.95 647.138 348.886 647.068 350.699C646.972 353.185 644.603 357.468 643.325 359.592C636.644 353.793 630.468 350.92 621.323 351.589C613.373 352.171 603.9 356.125 598.692 362.265C592.315 369.782 592.198 376.145 592.632 385.2C589.279 385.22 585.68 385.309 582.351 385.236C582.062 374.845 581.519 368.931 587.765 360.129C588.23 359.472 592.13 354.439 592.094 354.503C592.674 352.813 592.769 352.73 594.177 351.609L598.133 348.447C598.141 347.639 597.613 346.515 597.342 345.706C595.537 346.298 594.686 349.934 592.059 350.846C593.892 348.814 595.996 347.566 595.169 344.906C590.671 340.673 587.751 346.085 587.057 336.931C586.925 335.196 581.584 333.974 582.564 329.549C578.25 327.33 572.808 326.533 568.012 325.649C568.271 323.172 568.085 318.995 569.436 317.011C569.875 316.366 570.291 316.61 571.42 316.552Z"/><path fill="#D6905F" d="M582.564 329.549C590.934 333.644 596.475 340.146 599.505 348.968C597.029 350.803 594.541 352.629 592.094 354.503C592.674 352.813 592.769 352.73 594.177 351.609L598.133 348.447C598.141 347.639 597.613 346.515 597.342 345.706C595.537 346.298 594.686 349.934 592.059 350.846C593.892 348.814 595.996 347.566 595.169 344.906C590.671 340.673 587.751 346.085 587.057 336.931C586.925 335.196 581.584 333.974 582.564 329.549Z"/><path fill="#D6905F" d="M628.511 341.908C631.756 339.84 643.021 340.77 645.784 344.055C646.259 345.541 646.11 346.434 645.474 347.919C639.306 345.153 634.93 343.82 628.511 341.908Z"/><path fill="#D6905F" d="M571.42 316.552L576.236 315.925L575.54 315.846C580.522 315.601 587.997 317.016 589.916 322.386C582.303 318.942 579.655 318.207 571.42 316.552Z"/><defs><linearGradient id="gradient_5" gradientUnits="userSpaceOnUse" x1="644.96606" y1="199.24525" x2="520.49817" y2="544.14404"><stop offset="0" stop-color="#EFA132"/><stop offset="1" stop-color="#CB4064"/></linearGradient></defs><path fill="url(#gradient_5)" d="M736.602 224.538C740.028 227.495 742.93 230.809 745.835 234.26C760.592 252.529 775.513 270.66 789.456 289.568C790.696 291.249 792.359 293.216 793.289 295.031C795.355 297.309 796.321 298.872 797.978 301.409C792.97 301.567 768.19 300.467 765.544 301.584C760.011 334.839 751.141 361.631 733.9 390.71C731.12 395.399 726.763 403.668 723.336 407.48C719.553 413.043 709.299 426.61 704.653 431.391C699.098 438.898 668.568 468.601 661.054 472.732C655.087 478.323 637.001 490.244 629.441 493.905C625.887 495.849 618.524 500.054 614.967 501.269L610.503 503.312C595.811 509.617 580.278 515.831 564.512 519.128C533.159 525.684 498.233 526.087 466.55 521.708C437.648 517.713 404.199 503.984 379.629 488.209C373.6 485.1 356.357 470.266 352.039 464.859C356.79 466.689 366.833 472.534 372.078 475.217C380.588 478.469 387.144 481.824 396.288 484.851C440.144 499.334 491.79 503.001 536.514 490.36C574.841 479.527 611.655 458.041 639.262 429.447C649.987 418.338 659.614 408.01 668.555 395.304C675.876 384.899 680.241 375.068 686.236 364.156L691.763 350.738C697.825 335.233 704.232 318.198 705.744 301.495C696.93 300.926 687.715 301.068 678.836 300.983C678.072 301.002 676.964 300.921 676.169 300.89L675.45 300.086C675.237 296.033 680.3 290.596 682.841 287.358C690.672 277.289 699.678 268.07 706.902 258.694L707.749 258.048C709.735 255.11 715.361 248.699 717.828 245.777C723.757 238.752 730.03 230.858 736.602 224.538Z"/><path fill="#D6905F" d="M736.602 224.538C740.028 227.495 742.93 230.809 745.835 234.26C744.69 236.372 744.326 237.021 743.662 239.309C738.396 220.832 728.678 241.156 724.179 247.523C723.495 248.491 722.162 251.58 721.326 252.635C716.156 254.585 716.281 253.625 713.062 258.128C713.034 259.986 713.216 262.091 712.604 263.733C709.403 263.93 707.337 263.216 705.256 265.702C702.974 268.43 704.841 270.587 703.09 273.083C700.77 273.119 699.785 272.396 698.599 273.617C696.416 275.865 695.141 281.073 693.175 283.029C691.398 284.797 690.625 283.554 687.717 286.069C687.236 285.165 687.387 285.421 687.232 284.348C685.75 284.829 685.035 286.215 683.731 287.631C683.11 288.525 682.069 289.821 681.769 290.776C683.376 290.921 682.755 290.561 683.811 291.596C684.115 292.737 684.952 294.729 684.211 295.409C682.019 297.418 680.684 298.637 678.836 300.983C678.072 301.002 676.964 300.921 676.169 300.89L675.45 300.086C675.237 296.033 680.3 290.596 682.841 287.358C690.672 277.289 699.678 268.07 706.902 258.694L707.749 258.048C709.735 255.11 715.361 248.699 717.828 245.777C723.757 238.752 730.03 230.858 736.602 224.538Z"/><path fill="#DFAC7E" d="M745.835 234.26C760.592 252.529 775.513 270.66 789.456 289.568C790.696 291.249 792.359 293.216 793.289 295.031C793.291 296.678 793.689 297.023 794.589 298.397L794.279 298.519L793.626 297.653C790.389 294.694 790.643 294.679 786.427 293.689C785.039 291.155 782.035 285.987 779.438 285.103C773.825 283.192 774.276 279.091 771.709 274.33C768.787 268.913 768.154 266.378 762.248 263.748C761.216 261.132 759.732 256.998 757.629 255.265C750.986 253.439 753.404 252.818 751.052 248.259C749.425 245.105 744.71 243.399 743.662 239.309C744.326 237.021 744.69 236.372 745.835 234.26Z"/><defs><linearGradient id="gradient_6" gradientUnits="userSpaceOnUse" x1="781.65442" y1="305.63318" x2="774.94824" y2="291.53131"><stop offset="0" stop-color="#C4723E"/><stop offset="1" stop-color="#E48C49"/></linearGradient></defs><path fill="url(#gradient_6)" d="M793.289 295.031C795.355 297.309 796.321 298.872 797.978 301.409C792.97 301.567 768.19 300.467 765.544 301.584C764.042 300.948 763.219 299.756 762.728 298.294C764.8 293.892 789.011 296.168 793.626 297.653L794.279 298.519L794.589 298.397C793.689 297.023 793.291 296.678 793.289 295.031Z"/><path fill="#B43662" d="M352.039 464.859C356.79 466.689 366.833 472.534 372.078 475.217C369.846 475.098 369.453 474.683 367.878 475.605C368.596 479.881 378.477 483.654 379.629 488.209C373.6 485.1 356.357 470.266 352.039 464.859Z"/><path fill="#CB4560" d="M631.005 490.783C638.158 487.561 654.076 474.694 661.054 472.732C655.087 478.323 637.001 490.244 629.441 493.905C629.248 493.498 628.523 492.776 628.18 492.394L631.005 490.783Z"/><path fill="#CE5D67" d="M709.393 421.224C710.85 419.863 714.205 415.107 715.98 413.006C715.712 414.484 713.863 417.546 713.053 419.05C716.966 415.193 720.151 409.068 723.336 407.48C719.553 413.043 709.299 426.61 704.653 431.391C705.273 429.422 705.73 429.146 705.314 427.473L709.393 421.224Z"/><path fill="#D6905F" d="M691.763 350.738C693.456 353.632 694.251 358.912 692.931 362.028L692.102 362.408C691.158 361.355 690.225 360.308 689.255 359.277L689.019 359.862C688.085 362.128 687.994 362.501 686.236 364.156L691.763 350.738Z"/><path fill="#CE5D67" d="M610.503 503.312L611.611 502.081C610.743 501.55 606.4 502.744 605.138 503.036L604.845 502.47C606.508 498.241 608.888 497.817 612.879 499.68L613.047 500.555C613.998 500.943 613.693 500.833 614.47 501.101L614.967 501.269L610.503 503.312Z"/><path fill="#D9756B" d="M705.314 427.473C701.915 424.224 703.466 420.295 709.393 421.224L705.314 427.473Z"/><path fill="#D9756B" d="M628.18 492.394C627.039 492.014 627.121 492.041 626.288 491.164L626.344 490.097L627.587 489.41C629.438 489.401 629.512 489.684 631.005 490.783L628.18 492.394Z"/><path fill="#CB4560" d="M721.982 430.028C728.845 437.034 733.518 454.264 733.196 463.985C732.642 480.738 725.333 496.912 713.283 508.568C700.599 520.837 688.34 522.543 671.508 519.779C671.512 523.556 671.428 527.709 671.558 531.453C679.945 531.498 689.047 531.743 697.315 530.934C697.961 541.741 698.541 553.944 694.748 564.282C689.233 579.889 680.965 590.242 665.818 597.699C652.414 604.298 641.51 603.668 627.84 598.992C625.333 615.097 623.874 626.087 611.632 638.287C601.525 648.116 587.993 654.674 573.619 654.775C555.227 654.904 531.674 641.454 527.299 622.443C525.57 614.927 526.502 600.081 526.518 591.664L526.632 536.873C529.779 536.466 533.233 536.206 536.362 535.883C586.644 530.695 633.171 509.158 673.053 478.643C681.315 472.322 688.903 464.526 696.757 457.335L721.982 430.028Z"/><path fill="#CE5D67" d="M721.982 430.028C728.845 437.034 733.518 454.264 733.196 463.985C732.642 480.738 725.333 496.912 713.283 508.568C700.599 520.837 688.34 522.543 671.508 519.779C671.512 523.556 671.428 527.709 671.558 531.453C679.945 531.498 689.047 531.743 697.315 530.934C697.961 541.741 698.541 553.944 694.748 564.282C694.54 563.96 694.335 563.436 694.421 563.048C695.944 556.147 698.593 539.612 696.133 533.047C693.351 530.805 677.791 533.35 672.952 532.073C668.35 530.858 672.007 523.87 669.941 520.718C668.362 520.141 668.437 520.241 666.757 520.572C665.424 523.72 664.731 529.415 667.054 532.314C670.672 536.829 677.415 535.755 682.488 536.375C669.337 539.92 661.837 534.051 664.762 520.342C665.701 515.941 671.864 518.233 674.878 519.046C700.071 525.841 721.199 504.09 728.993 482.261C734.763 466.105 732.453 449.927 724.573 434.914C723.935 433.714 723.635 433.042 722.314 432.703C719.348 437.25 714.869 439.901 711.059 443.627C707.55 447.058 704.101 450.875 700.776 454.505C700.837 455.794 700.907 455.729 700.218 456.802C699.043 456.914 698.644 456.989 697.587 457.509L696.757 457.335L721.982 430.028Z"/><path fill="#15182A" d="M598.873 528.352C600.739 529.641 602.467 536.158 604.731 538.654C615.221 550.223 628.85 551.547 640.6 541.225C642.163 544.754 643.446 548.351 645.124 552.05C637.377 556.275 629.77 558.537 620.93 557.644C619.873 561.395 618.729 564.946 617.523 568.653C614.886 575.414 612.03 581.602 607.334 587.218C603.914 584.341 602.797 582.844 599.993 579.372C605.244 571.05 608.821 565.02 609.756 555.178C604.461 551.772 597.825 546.252 594.297 541.02C589.982 534.622 593.764 531.433 598.873 528.352Z"/><defs><linearGradient id="gradient_7" gradientUnits="userSpaceOnUse" x1="485.06107" y1="727.13599" x2="484.43127" y2="781.52606"><stop offset="0" stop-color="#5EC6B3"/><stop offset="1" stop-color="#3E8CA7"/></linearGradient></defs><path fill="url(#gradient_7)" d="M446.577 736.24C452.259 730.293 459.086 726.896 467.431 726.652C478.084 726.342 483.471 730.81 489.963 738.371C512.076 715.344 544.027 728.213 542.073 760.128C541.764 765.18 542.057 772.076 542.026 777.275L542.058 796.8C535.864 796.717 529.211 796.93 522.978 797.028C522.877 789.708 522.785 782.582 522.93 775.265C522.946 767.226 524.209 755.333 518.131 749.228C512.648 743.72 503.533 743.477 498.255 749.373C492.488 755.815 494.798 767.449 494.412 775.706L494.43 796.954C487.861 796.853 481.231 796.665 474.672 796.924L474.503 779.365C474.535 772.363 474.825 765.22 474.341 758.186C473.207 741.678 451.152 740.205 447.364 755.995C446.308 760.394 446.652 766.933 446.594 771.591C446.993 773.621 446.877 793.59 446.903 797.003C440.487 796.909 434.07 796.98 427.653 797.023C427.187 787.332 427.487 774.542 427.626 764.845L427.511 727.803C432.706 727.626 441.316 727.278 446.407 727.825L446.577 736.24Z"/><defs><linearGradient id="gradient_8" gradientUnits="userSpaceOnUse" x1="530.79425" y1="796.96796" x2="533.51654" y2="777.85986"><stop offset="0" stop-color="#445D9A"/><stop offset="1" stop-color="#3C80A2"/></linearGradient></defs><path fill="url(#gradient_8)" d="M522.93 775.265L523.939 778.143C526.835 778.518 529.487 778.172 532.396 777.951C535.681 777.7 538.278 780.363 541.399 779.632L542.026 777.275L542.058 796.8C535.864 796.717 529.211 796.93 522.978 797.028C522.877 789.708 522.785 782.582 522.93 775.265Z"/><path fill="#5C6590" d="M474.503 779.365L474.982 780.016C474.977 780.014 490.494 779.768 493.589 780.133C493.808 778.624 494.11 777.197 494.412 775.706L494.43 796.954C487.861 796.853 481.231 796.665 474.672 796.924L474.503 779.365Z"/><defs><linearGradient id="gradient_9" gradientUnits="userSpaceOnUse" x1="437.47662" y1="795.97681" x2="436.41068" y2="778.04016"><stop offset="0" stop-color="#475E9A"/><stop offset="1" stop-color="#4282A5"/></linearGradient></defs><path fill="url(#gradient_9)" d="M427.626 764.845C428.332 768.374 428.185 776.706 428.254 780.749C433.267 780.869 440.196 781.596 444.446 779.042C446.77 776.177 444.742 773.248 446.594 771.591C446.993 773.621 446.877 793.59 446.903 797.003C440.487 796.909 434.07 796.98 427.653 797.023C427.187 787.332 427.487 774.542 427.626 764.845Z"/><defs><linearGradient id="gradient_10" gradientUnits="userSpaceOnUse" x1="376.40439" y1="727.47882" x2="377.20413" y2="780.5448"><stop offset="0" stop-color="#5FCBB6"/><stop offset="1" stop-color="#3F8BA7"/></linearGradient></defs><path fill="url(#gradient_10)" d="M348.522 736.65C361.556 725.572 389.269 721.861 401.569 735.585C410.083 745.086 408.884 758.584 408.475 770.33C408.535 779.021 408.533 787.895 408.761 796.57L390.911 796.496L390.547 789.591C385.909 792.771 381.955 795.515 376.483 797.048C365.781 800.046 351.381 795.819 347.419 784.528C346.258 782.34 345.65 779.254 345.739 776.794C346.612 752.708 373.041 755.614 389.925 756.253C384.833 738.507 369.456 741.565 356.888 749.202C354.496 744.812 351.791 740.442 348.522 736.65Z"/><defs><linearGradient id="gradient_11" gradientUnits="userSpaceOnUse" x1="377.9696" y1="796.75171" x2="377.09567" y2="773.97827"><stop offset="0" stop-color="#455693"/><stop offset="1" stop-color="#3E8DA8"/></linearGradient></defs><path fill="url(#gradient_11)" d="M387.661 768.999C389.763 769.821 389.182 769.132 389.952 770.694L389.647 773.229L389.407 776.676L390.074 777.353C392.48 777.808 393.585 776.456 395.994 776.17C399.463 775.757 403.534 776.252 406.647 774.474C408.328 773.514 408.145 772.082 408.475 770.33C408.535 779.021 408.533 787.895 408.761 796.57L390.911 796.496L390.547 789.591C385.909 792.771 381.955 795.515 376.483 797.048C365.781 800.046 351.381 795.819 347.419 784.528L348.083 784.481C347.592 783.164 347.453 783.17 347.72 781.83C349.886 779.31 360.452 776.476 364.265 773.937L364.529 775.596C368.71 767.002 379.335 768.962 387.661 768.999Z"/><path fill="#15182A" d="M387.661 768.999C389.763 769.821 389.182 769.132 389.952 770.694L389.647 773.229C387.503 778.58 386.612 780.205 381.011 782.969C375.028 785.922 364.188 783.807 364.529 775.596C368.71 767.002 379.335 768.962 387.661 768.999Z"/><path fill="#3F8A9F" d="M364.265 773.937C364.585 773.16 365.546 770.741 365.974 770.285C369.272 766.766 384.55 766.085 387.661 768.999C379.335 768.962 368.71 767.002 364.529 775.596L364.265 773.937Z"/><path fill="#CE5D67" d="M642.461 708.254C654.38 707.943 666.924 708.101 678.865 708.027C687.211 707.976 698.289 707.719 706.369 708.388C706.567 713.203 706.457 719.926 706.051 724.628L660.945 724.937C660.813 732.572 660.872 739.847 661.005 747.485C669.514 746.724 692.966 746.748 701.969 747.252L701.97 755.125L701.762 763.924C688.705 763.875 673.199 763.506 660.347 764.112C659.684 771.747 660.107 788.61 660.106 796.896C653.658 796.685 646.001 796.929 639.462 796.979C638.935 773.993 639.822 750.739 639.432 727.722C639.329 721.683 639.202 715.093 639.501 709.086C640.65 708.116 640.651 708.426 642.461 708.254Z"/><defs><linearGradient id="gradient_12" gradientUnits="userSpaceOnUse" x1="759.98376" y1="793.63446" x2="752.14636" y2="705.26221"><stop offset="0" stop-color="#B62967"/><stop offset="1" stop-color="#DD846D"/></linearGradient></defs><path fill="url(#gradient_12)" d="M708.548 708.374C715.783 707.87 724.116 708.025 731.452 708.008C735.104 713.563 737.938 719.517 741.217 725.293C745.337 732.55 749.554 739.788 753.799 746.973C758.011 739.425 762.227 731.999 766.584 724.538C769.685 719.227 772.315 713.362 775.644 708.164C781.764 708.112 791.446 707.767 797.348 708.478C787.814 724.244 778.663 740.151 768.539 755.568C766.634 758.469 764.151 762.271 763.239 765.683C762.091 772.809 763.049 782 762.525 789.179C762.593 791.313 762.673 793.324 762.826 795.453C762.473 796.694 762.796 796.168 761.869 797.038C758.521 797.394 746.356 797.282 743.109 796.764C742.265 795.513 742.619 794.752 742.633 792.896C742.305 788.338 742.367 770.602 742.961 766.394C740.184 759.418 735.892 754.251 732.369 747.863C725.317 735.077 714.896 721.248 708.548 708.374Z"/><path fill="#B43662" d="M742.961 766.394C743.659 772.858 742.288 779.672 743.513 786.016C743.651 786.73 745.476 788.237 746.047 788.736C745.989 790.454 745.613 790.287 744.19 791.985C746.012 793.605 758.638 795.393 761.58 793.109C762.067 791.597 762.033 791.156 762.163 789.59L762.525 789.179C762.593 791.313 762.673 793.324 762.826 795.453C762.473 796.694 762.796 796.168 761.869 797.038C758.521 797.394 746.356 797.282 743.109 796.764C742.265 795.513 742.619 794.752 742.633 792.896C742.305 788.338 742.367 770.602 742.961 766.394Z"/><path fill="#9F2E60" d="M742.633 792.896C743.232 795.43 742.725 795.19 744.327 796.241C749.918 796.721 755.491 792.469 762.826 795.453C762.473 796.694 762.796 796.168 761.869 797.038C758.521 797.394 746.356 797.282 743.109 796.764C742.265 795.513 742.619 794.752 742.633 792.896Z"/><defs><linearGradient id="gradient_13" gradientUnits="userSpaceOnUse" x1="585.53455" y1="727.80963" x2="589.54364" y2="766.20648"><stop offset="0" stop-color="#64C9B6"/><stop offset="1" stop-color="#448BA4"/></linearGradient></defs><path fill="url(#gradient_13)" d="M555.698 773.272C550.838 761.651 555.9 746.038 564.399 737.361C571.572 730.039 580.514 727.214 590.527 726.894C610.377 726.259 624.732 743.161 624.922 762.292C624.97 764.965 624.979 766.242 624.627 768.876C610.507 769.312 596.372 769.164 582.248 769.321C580.017 769.346 577.746 769.189 575.585 769.841L575.033 770.005C574.495 768.794 573.789 766.671 572.896 766.004C567.077 767.724 561.82 769.022 555.92 770.427C555.973 771.279 556.175 772.567 555.698 773.272Z"/><defs><linearGradient id="gradient_14" gradientUnits="userSpaceOnUse" x1="599.23029" y1="770.31879" x2="600.55536" y2="756.758"><stop offset="0" stop-color="#41749D"/><stop offset="1" stop-color="#4B91A8"/></linearGradient></defs><path fill="url(#gradient_14)" d="M575.033 770.005C574.951 768.986 574.6 765.881 574.993 765.186C578.038 759.801 591.474 763.1 596.982 761.997C600.485 761.296 603.334 759.849 605.724 759.19C608.095 758.537 622.067 758.611 623.841 759.657C623.919 761.026 624.089 761.208 624.922 762.292C624.97 764.965 624.979 766.242 624.627 768.876C610.507 769.312 596.372 769.164 582.248 769.321C580.017 769.346 577.746 769.189 575.585 769.841L575.033 770.005Z"/><path fill="#172237" d="M586.016 743.602C597.011 742.093 602.949 746.01 606.015 756.5C602.5 756.675 598.464 756.578 594.902 756.572C588.141 756.566 581.498 756.487 574.747 756.9C577.124 749.353 578.821 746.782 586.016 743.602Z"/><defs><linearGradient id="gradient_15" gradientUnits="userSpaceOnUse" x1="291.07352" y1="779.99255" x2="287.54654" y2="707.28882"><stop offset="0" stop-color="#4792A9"/><stop offset="1" stop-color="#67D6B7"/></linearGradient></defs><path fill="url(#gradient_15)" d="M255.176 779.433C249.42 773.14 247.374 760.491 247.459 752.224C247.893 709.601 303.535 690.761 331.703 721.172C327.759 725.636 323.867 730.211 319.975 734.726C283.894 705.072 251.435 747.841 278.315 776.03C278.51 777.314 278.534 777.068 279.157 778.16C275.974 780.323 262.431 781.449 258.219 781.61C257.488 781.638 256.758 780.165 255.176 779.433Z"/><defs><linearGradient id="gradient_16" gradientUnits="userSpaceOnUse" x1="295.59375" y1="793.65076" x2="292.8089" y2="753.39685"><stop offset="0" stop-color="#3F6096"/><stop offset="1" stop-color="#4DB2B1"/></linearGradient></defs><path fill="url(#gradient_16)" d="M311.832 751.478C317.853 750.961 324.825 750.89 330.902 751.016L330.9 788.361L327.173 790.267C311.384 799.497 283.042 803.211 267.516 791.226C263.46 789.809 257.46 783.309 255.176 779.433C256.758 780.165 257.488 781.638 258.219 781.61C262.431 781.449 275.974 780.323 279.157 778.16C278.534 777.068 278.51 777.314 278.315 776.03C290.015 783.329 300.049 782.756 312.06 776.803C312.041 768.591 312.188 759.624 311.832 751.478Z"/><defs><linearGradient id="gradient_17" gradientUnits="userSpaceOnUse" x1="300.33917" y1="797.74377" x2="299.91891" y2="790.62671"><stop offset="0" stop-color="#4A4B8A"/><stop offset="1" stop-color="#436293"/></linearGradient></defs><path fill="url(#gradient_17)" d="M267.516 791.226C269.532 791.546 269.634 791.988 271.217 792.474C279.704 794.579 296.373 795.325 305.146 793.657C314.588 791.863 314.296 787.207 327.173 790.267C311.384 799.497 283.042 803.211 267.516 791.226Z"/><defs><linearGradient id="gradient_18" gradientUnits="userSpaceOnUse" x1="585.08246" y1="796.91913" x2="587.73724" y2="766.79895"><stop offset="0" stop-color="#42548E"/><stop offset="1" stop-color="#4094AA"/></linearGradient></defs><path fill="url(#gradient_18)" d="M555.698 773.272C556.175 772.567 555.973 771.279 555.92 770.427C561.82 769.022 567.077 767.724 572.896 766.004C573.789 766.671 574.495 768.794 575.033 770.005L575.585 769.841C582.662 785.836 597.988 785.032 609.051 773.395C612.648 777.589 616.281 781.929 619.961 786.036C617.706 788.119 615.691 789.944 613.169 791.707C593.815 805.231 562.35 797.256 555.698 773.272Z"/><path fill="#6CB1B2" d="M481.088 580.531C490.845 580.039 502.838 580.443 512.739 580.537C513.112 585.703 512.984 608.255 512.635 613.323C501.99 612.994 491.484 613.45 480.811 613.395C480.489 607.271 480.159 585.994 481.088 580.531Z"/><path fill="#74C8B5" d="M482.932 443.722C488.607 443.901 507.635 443.326 511.591 444.802C512.93 447.801 512.874 473.342 511.902 476.522L511.011 476.942L481.527 477.014C480.707 468.804 480.851 454.02 481.257 445.363C481.308 444.279 482.13 444.12 482.932 443.722Z"/><path fill="#D6905F" d="M735.699 161.347C737.888 163.636 742.444 175.612 744.642 179.514C748.786 180.042 756.095 180.222 760.666 180.618C755.765 185.744 751.667 188.083 747.1 192.628C748.34 198.855 750.625 205.777 752.111 212.265C746.297 208.735 741.328 205.337 735.811 201.394C735.443 201.29 721.286 210.277 718.89 211.506L723.722 192.382C719.553 188.358 714.445 183.969 710.085 180.053C716.224 179.254 722.557 178.875 728.74 178.412C730.343 172.742 732.953 166.555 735.699 161.347Z"/><path fill="#74C9B9" d="M437.943 404.184C438.596 403.1 438.468 402.735 439.478 402.677C444.362 402.397 465.947 402.109 469.313 403.3L469.907 404.54C469.268 441.817 475.868 434.478 437.74 434.71C437.216 426.095 437.826 413.093 437.943 404.184Z"/><path fill="#74C8B5" d="M437.943 404.184C438.596 403.1 438.468 402.735 439.478 402.677C444.362 402.397 465.947 402.109 469.313 403.3L469.907 404.54C468.112 404.074 451.416 405.34 447.804 404.597C446.714 404.372 439.323 403.721 437.943 404.184Z"/><path fill="#74C9B9" d="M438.896 360.509C449.506 360.547 460.049 360.323 470.666 360.648C470.827 366.94 471.377 388.467 469.36 392.715C461.913 393.325 451.924 392.455 444.177 392.88C441.66 393.018 438.864 390.424 438.857 387.684C438.836 378.652 438.976 369.59 438.896 360.509Z"/><path fill="#74C9B9" d="M480.789 360.524C488.588 360.275 504.476 360.186 511.981 360.792C511.972 365.774 512.774 388.973 511.408 391.748C508.517 392.821 483.491 393.165 481.436 391.594C479.847 387.119 480.663 366.467 480.789 360.524Z"/><path fill="#6CB1B2" d="M438.184 538.211C446.015 537.662 461.451 537.895 469.435 538.149C469.547 548.265 469.859 559.912 469.41 569.907C460.265 570.35 448.336 569.819 438.677 569.956C437.688 564.359 437.887 544.448 438.184 538.211Z"/><path fill="#74C8B5" d="M483.643 402.53C514.741 402.91 513.069 396.5 511.934 428.436C510.452 430.791 510.061 431.175 508.013 433.082C503.129 435.82 486.486 437.021 482.114 434.016C481.333 432.602 480.832 430.199 480.937 428.638C481.402 421.743 478.943 407.612 483.643 402.53Z"/><path fill="#15182A" d="M504.595 423.052C502.318 426.609 497.928 428.181 493.91 426.879C489.892 425.577 487.259 421.728 487.501 417.512C487.743 413.296 490.8 409.774 494.94 408.94C499.08 408.106 503.261 410.171 505.117 413.965C506.541 416.877 506.343 420.321 504.595 423.052Z"/><path fill="#172237" d="M504.595 423.052C503.896 421.128 503.965 415.767 505.117 413.965C506.541 416.877 506.343 420.321 504.595 423.052Z"/><path fill="#74C9B9" d="M399.988 360.743C408.497 360.56 419.758 360.333 428.13 360.852C427.929 367.734 428.681 385.8 427.825 391.082C426.636 392.369 427.076 391.964 424.875 392.247C416.432 392.322 405.331 392.732 397.095 392.202C396.929 385.742 396.604 367.321 397.198 361.84C398.049 360.692 398.054 361.052 399.988 360.743Z"/><path fill="#6CB1B2" d="M482.112 539.018C490.426 538.413 503.445 538.776 512.107 538.78C512.2 543.486 512.585 567.457 511.315 570.42C501.408 570.511 491.569 570.426 481.665 570.341C481.158 564.014 480.394 544.898 482.112 539.018Z"/><path fill="#172237" d="M488.428 546.794L505.304 546.905C505.267 552.058 505.448 557.646 505.525 562.83C499.751 562.899 494.259 562.837 488.487 562.713L488.428 546.794Z"/><path fill="#74C9B9" d="M483.7 277.108C492.666 276.742 502.869 276.944 511.927 276.917C511.957 281.667 512.686 306.219 511.138 308.442L509.625 308.687L480.954 308.532C481.064 299.601 480.93 288.799 481.333 279.757C481.395 278.351 482.607 277.836 483.7 277.108Z"/><path fill="#74C9B9" d="M480.82 319.005L512.044 319.009C512.622 326.098 512.585 342.075 512.17 349.297C508.17 350.558 486.4 349.991 481.046 349.851C480.524 341.364 480.999 328.041 480.82 319.005Z"/><path fill="#74C9B9" d="M456.951 278.226C461.817 278.054 466.228 278.204 471.081 278.355C471.129 282.356 471.699 305.675 470.233 307.732C467.08 308.847 460.231 308.423 456.543 308.354C451.295 308.356 446.28 308.235 441.044 308.07C440.936 298.392 440.696 288.391 440.961 278.743C444.794 278.339 452.7 278.358 456.951 278.226Z"/><path fill="#15182A" d="M447.322 284.625C452.969 284.584 458.3 284.575 463.952 284.757C464.166 290.84 464.171 295.826 463.989 301.91C458.31 302.017 452.67 301.891 446.993 301.798C446.978 296.046 446.871 290.361 447.322 284.625Z"/><path fill="#74C9B9" d="M338.187 492.549C345.974 493.294 357.844 492.802 366.162 492.858C366.295 497.388 367.452 519.564 365.473 522.002L336.651 522.08C336.991 512.784 336.087 503.309 336.886 494.114C337.32 493.592 337.753 493.071 338.187 492.549Z"/><path fill="#74C9B9" d="M412.168 519.065C420.013 517.681 427.492 522.925 428.865 530.772C430.239 538.618 424.986 546.091 417.138 547.455C409.303 548.816 401.847 543.575 400.475 535.742C399.104 527.909 404.337 520.446 412.168 519.065Z"/><path fill="#172237" d="M413.525 525.471C417.934 525.026 421.902 528.158 422.492 532.55C423.082 536.943 420.083 541.011 415.713 541.747C412.755 542.245 409.76 541.091 407.901 538.736C406.042 536.381 405.614 533.2 406.785 530.438C407.956 527.676 410.54 525.772 413.525 525.471Z"/><path fill="#74C8B5" d="M404.617 434.263C408.688 434.171 411.462 434.013 415.467 434.622C415.7 442.699 415.932 451.593 415.618 459.596L400.506 459.475C396.487 459.445 394.292 459.353 390.33 458.828C389.826 452.417 390.375 441.315 390.554 434.509C395.169 434.353 399.982 434.342 404.617 434.263Z"/><path fill="#74C8B5" d="M386.364 300.688C391.751 300.48 406.706 299.98 411.137 301.237C412.154 302.413 411.584 323.117 410.409 324.547C405.325 324.618 390.371 325.478 385.738 323.582C385.321 323.612 385.076 321.871 385.119 321.654C386.026 317.114 383.759 304.07 386.364 300.688Z"/><path fill="#74C9B9" d="M456.344 443.858C464.09 443.038 471.03 448.663 471.833 456.411C472.636 464.159 466.996 471.086 459.246 471.872C455.265 472.275 451.301 470.966 448.344 468.272C445.386 465.577 443.714 461.752 443.745 457.751C443.801 450.591 449.223 444.613 456.344 443.858Z"/><path fill="#172237" d="M456.253 450.415C460.59 449.644 464.737 452.511 465.547 456.84C466.357 461.169 463.527 465.342 459.205 466.191C454.828 467.05 450.591 464.176 449.771 459.792C448.95 455.408 451.862 451.196 456.253 450.415Z"/><path fill="#74C9B9" d="M324.811 461.708C326.168 461.765 326.956 461.636 328.021 462.45C328.487 464.754 328.059 482.553 328.025 485.705L306.875 486.033C305.561 486.087 304.835 486.304 303.77 485.614C303.028 481.55 303.509 467.222 303.587 462.545C310.759 462.366 317.649 462.101 324.811 461.708Z"/><path fill="#172237" d="M308.015 467.594L322.306 467.728C322.368 472.19 322.153 476.8 322.007 481.272C317.427 481.466 312.594 481.484 307.991 481.577L308.015 467.594Z"/><path fill="#6CB1B2" d="M387.229 555.595C393.295 555.128 399.967 555.179 405.994 555.994C406.574 560.704 407.094 574.023 406.039 578.392C404.916 579.758 405.431 579.336 403.125 579.598C378.084 579.741 382.218 582.437 382.491 557.38C384.311 556.485 385.273 556.208 387.229 555.595Z"/><path fill="#74C9B9" d="M416.421 317.666C424.266 317.544 431.782 317.555 439.628 317.674C439.812 324.321 439.983 334.09 439.229 340.646C433.689 341.982 422.321 341.508 416.346 341.456C416.411 333.521 416.247 325.601 416.421 317.666Z"/><path fill="#74C8B5" d="M365.375 381.722C371.335 381.314 382.593 381.277 388.437 381.53C388.59 384.854 389.136 401.924 387.865 403.983C380.033 404.036 372.374 404.007 364.543 403.882C364.503 400.191 363.853 383.501 365.375 381.722Z"/><path fill="#172237" d="M369.475 385.801L382.452 386.044C382.496 390.526 382.638 395.18 382.287 399.634C378.961 400.147 372.697 400.061 369.122 400.115C369.077 395.421 369.317 390.509 369.475 385.801Z"/><path fill="#6CB1B2" d="M416.474 560.488C420.786 560.224 426.055 560.436 430.356 560.862C430.439 570.212 429.636 583.072 429.402 592.846C427.217 594.216 419.564 593.651 416.556 593.553C415.915 583.494 416.367 570.733 416.474 560.488Z"/><path fill="#FEFEFE" d="M554.259 830.482C559.309 830.379 569.417 829.573 572.952 832.581C580.801 839.26 576.311 848.171 567.152 849.929L559.557 849.588C559.52 851.843 559.725 856.416 558.939 858.289C557.401 858.505 556.4 858.266 554.877 858.049C553.424 855.362 554.179 835.12 554.259 830.482Z"/><path fill="#15182A" d="M559.268 834.679C565.261 834.854 575.39 834.96 569.971 844.179C566.527 845.64 562.89 845.393 559.203 845.335C559.098 841.924 559.224 838.123 559.268 834.679Z"/><path fill="#74C8B5" d="M423.235 403.213L424.223 403.46C424.512 407.107 412.852 427.202 409.789 431.154C408.148 428.711 406.448 425.796 404.894 423.251C400.875 416.116 398.108 411.507 395.402 403.706C404.696 403.435 413.937 403.844 423.235 403.213Z"/><path fill="#6CB1B2" d="M375.144 527.514C382.023 527.435 388.637 527.44 395.515 527.567C395.572 535.684 395.593 544.756 395.144 552.82C391.673 552.242 391.401 550.928 389.518 548.087C384.364 547.696 380.608 548.112 375.015 547.345C374.761 540.714 374.723 534.137 375.144 527.514Z"/><path fill="#74C9B9" d="M471.556 234.619C478.072 234.363 486.93 234.426 493.391 234.816C493.827 240.547 493.729 248.248 493.484 253.95C486.611 254.497 478.243 254.187 471.36 253.966C471.183 248.05 471.478 240.646 471.556 234.619Z"/><path fill="#74C9B9" d="M456.414 320.221C458.57 321.374 469.369 344.133 470.646 347.867C465.839 347.989 460.653 347.885 455.814 347.879L441.34 347.963C443.994 342.107 452.788 326.381 456.414 320.221Z"/><path fill="#74C9B9" d="M370.489 337.188C376.358 336.694 383.07 336.934 388.994 337.057C389.154 342.964 389.502 351.336 388.408 356.952C382.421 357.326 376.238 357.156 370.226 357.1C370.102 353.637 369.399 339.662 370.489 337.188Z"/><path fill="#74C9B9" d="M336.114 395.063C342.266 394.898 349.363 395.103 355.48 395.483C355.328 400.577 355.265 409.867 354.511 414.522C348.247 414.588 342.325 414.584 336.063 414.424C335.418 409.845 335.155 399.493 336.114 395.063Z"/><path fill="#FEFEFE" d="M481.475 837.856C487.219 836.145 493.264 839.409 494.983 845.152C496.703 850.894 493.446 856.943 487.707 858.671C481.956 860.402 475.891 857.137 474.169 851.384C472.446 845.63 475.719 839.57 481.475 837.856Z"/><path fill="#15182A" d="M482.903 841.922C491.256 842.031 492.266 850.499 486.064 854.952C477.807 854.338 476.39 846.143 482.903 841.922Z"/><path fill="#FEFEFE" d="M587.65 837.753C593.398 836.351 599.208 839.824 600.693 845.552C602.178 851.28 598.788 857.139 593.082 858.707C589.318 859.741 585.288 858.668 582.536 855.898C579.784 853.128 578.738 849.091 579.797 845.333C580.856 841.575 583.857 838.679 587.65 837.753Z"/><path fill="#15182A" d="M587.769 841.97C596.604 841.756 598.109 848.93 592.491 854.462C583.766 854.92 582.36 846.838 587.769 841.97Z"/><path fill="#74C9B9" d="M344.271 437.66C350.519 437.593 356.438 437.572 362.685 437.737C362.677 441.376 363.137 454.475 360.915 456.374C355.289 456.437 349.46 456.435 343.856 456.06L343.644 455.286C342.503 451.196 341.356 440.862 344.271 437.66Z"/><path fill="#FEFEFE" d="M379.533 837.68C385.27 836.496 390.898 840.128 392.181 845.843C393.465 851.559 389.93 857.248 384.238 858.631C380.467 859.546 376.496 858.356 373.85 855.517C371.204 852.679 370.295 848.633 371.474 844.936C372.652 841.239 375.733 838.465 379.533 837.68Z"/><path fill="#15182A" d="M379.487 842.038C388.169 841.547 389.447 849.581 383.689 854.499C374.855 854.728 373.697 846.738 379.487 842.038Z"/><path fill="#6CB1B2" d="M471.134 635.625C477.942 635.463 485.496 635.739 492.313 635.92C492.723 640.725 492.469 647.57 492.111 652.349L470.741 652.243C470.799 646.676 470.96 641.188 471.134 635.625Z"/><path fill="#74C9B9" d="M326.067 435.607C339.764 434.855 343.899 451.17 330.93 456.573C321.495 457.443 315.999 451.748 318.844 441.701C319.738 438.547 323.082 436.707 326.067 435.607Z"/><path fill="#172237" d="M325.786 440.512C334.396 440.642 335.739 448.144 329.215 452.616C322.067 451.227 319.026 445.264 325.786 440.512Z"/><path fill="#74C9B9" d="M359.154 415.228C367.602 414.99 378.063 415.064 386.48 415.31C386.531 418.089 387.28 425.837 385.452 427.459L357.949 427.309C357.928 423.914 357.663 418.998 358.222 415.825L359.154 415.228Z"/><path fill="#74C9B9" d="M507.378 243.711C509.957 244.986 518.765 266.135 517.884 269.209C515.525 269.779 509.29 269.515 506.54 269.481L494.688 269.642C496.417 263.676 504.104 249.661 507.378 243.711Z"/><path fill="#74C9B9" d="M298.593 399.318C302.611 405.258 308.528 416.373 312.243 422.902L298.75 423.062C294.163 423.099 289.502 423.032 284.908 423.01C287.636 416.794 294.803 405.727 298.593 399.318Z"/><path fill="#FEFEFE" d="M323.557 830.47C325.074 830.452 328.943 829.954 328.967 832.535C329.29 836.038 328.543 840.4 328.944 843.807C330.44 856.525 317.736 863.922 307.948 855.634C304.266 852.516 304.468 846.541 304.482 841.616C304.421 838.689 303.984 833.566 305.143 831.075C306.43 830.611 308.232 830.673 309.301 831.556C309.932 835.487 309.533 844.377 309.65 849.066C310.1 849.838 310.716 850.658 311.131 851.45C312.461 854.523 318.922 854.963 320.961 852.704C324.894 848.345 323.567 836.155 323.557 830.47Z"/><path fill="#74C9B9" d="M313.897 281.036C319.517 280.905 325.371 281.004 331.009 281.018C330.953 287.083 330.836 292.772 330.546 298.83C327.663 299.36 317.311 299.155 313.895 299.138L313.897 281.036Z"/><path fill="#FEFEFE" d="M628.041 837.544C637.497 837.074 640.321 840.956 641.706 849.538C637.531 849.515 629.55 849.19 625.881 850.151L625.608 850.831C627.928 855.402 632.634 856.661 635.847 852.285C637.742 853.085 639.049 853.192 639.067 855.343C637.004 859.113 631.614 859.422 627.769 858.551C621.562 857.145 618.639 850.066 620.502 844.334C621.533 841.164 625.159 838.899 628.041 837.544Z"/><path fill="#15182A" d="M629.014 841.529C631.9 841.543 634.692 842.015 635.638 845.193C634.6 846.419 635.244 845.905 633.125 846.199C630.489 846.201 628.206 846.517 625.919 845.415L625.614 844.509C626.357 842.947 627.518 842.473 629.014 841.529Z"/><path fill="#FEFEFE" d="M704.089 837.106C716.378 836.674 716.845 843.913 716.376 854.262C716.287 856.232 716.356 857.511 714.865 858.834C712.779 858.832 713.346 858.769 711.278 857.577C705.563 857.274 706.739 861.014 699.661 857.081C691.711 846.192 705.286 847.1 710.551 844.734L710.852 843.879C708.502 840.356 702.67 843.067 698.834 841.02L698.663 840.295C700.064 838.276 701.82 837.767 704.089 837.106Z"/><path fill="#172237" d="M705.323 849.086C707.908 848.97 710.439 848.572 710.807 851.683C709.996 853.524 709.439 853.706 707.727 854.941C704.958 855.037 703.001 855.005 702.622 851.821C703.318 850.12 703.754 850.029 705.323 849.086Z"/><path fill="#74C9B9" d="M400.226 270.844C402.629 273.339 410.816 290.266 412.546 294.088C408.92 294.185 405.112 294.146 401.469 294.163L388.44 293.927C391.38 286.914 396.48 277.656 400.226 270.844Z"/><path fill="#FEFEFE" d="M419.5 828.946C421.105 828.962 423.093 828.697 424.238 829.603C424.811 833.662 424.57 842.134 424.567 846.549C427.12 844.295 431.217 838.625 433.091 837.602C434.666 837.489 435.688 837.222 437.042 837.976L437.194 839.07C435.983 841.521 433.024 844.269 431.021 846.354L436.625 854.719C437.735 856.146 437.992 856.006 438.215 857.566C436.572 858.565 435.307 858.278 433.175 858.37C431.202 855.241 428.94 852.096 426.816 849.048C424.697 852.833 424.874 857.122 422.61 859.008C417.481 858.874 419.47 833.169 419.5 828.946Z"/><path fill="#6CB1B2" d="M374.684 497.64C377.448 498.884 379.876 500.649 382.579 502.089C387.529 504.727 392.178 506.608 396.752 509.903C396.076 511.982 395.365 513.585 394.501 515.568C391.941 517.453 378.834 516.442 374.926 516.279C374.725 510.083 374.728 503.842 374.684 497.64Z"/><path fill="#74C8B5" d="M300.742 336.944L316.806 336.892C316.871 342.548 316.774 348.219 316.711 353.876C313.875 354.436 304.345 354.195 301.007 354.164L300.742 336.944Z"/><path fill="#6CB1B2" d="M515.391 620.734C516.959 620.703 516.892 620.644 518.342 621.189C518.531 623.772 507.943 638.707 505.794 641.19L503.079 637.395C500.869 633.821 494.987 625.916 496.182 622.048C498.321 620.276 511.27 620.837 515.391 620.734Z"/><path fill="#74C8B5" d="M321.005 371.627C326.38 371.327 331.664 371.272 337.041 371.545L337.129 386.192L336.852 387.448C334.89 388.628 323.22 388.582 321.119 387.18L320.78 385.337C320.951 380.676 321.005 376.289 321.005 371.627Z"/><path fill="#74C9B9" d="M320.78 385.337C323.618 386.029 333.125 385.814 337.129 386.192L336.852 387.448C334.89 388.628 323.22 388.582 321.119 387.18L320.78 385.337Z"/><path fill="#FEFEFE" d="M451.323 837.731L456.225 837.944C458.094 842.899 459.747 847.345 462.041 852.142C463.707 846.61 464.602 836.857 471.916 838.037C472.461 839.566 466.931 851.832 465.75 854.879C462.504 862.933 462.19 868.771 452 866.362C451.085 865.219 451.299 865.851 451.3 864.417C452.451 862.977 456.221 862.232 457.508 861.071C462.124 856.913 450.572 843.625 451.323 837.731Z"/><path fill="#74C8B5" d="M367.866 248.904C373.118 248.744 378.734 248.865 384.013 248.884C384.034 254.05 383.713 259.73 383.523 264.93C378.757 265.171 372.648 265.07 367.779 265.111C367.541 260.155 367.794 253.952 367.866 248.904Z"/><path fill="#6CB1B2" d="M410.726 468.13C418.657 468.681 426.447 469.124 434.389 469.509C434.439 472.397 434.924 480.313 433.346 482.594C425.334 480.36 417.311 477.845 409.509 474.962C409.379 472.581 408.693 469.536 410.726 468.13Z"/><path fill="#74C8B5" d="M354.357 362.191L374.223 361.901C374.407 365.034 374.385 370.445 373.875 373.491L373.04 374.075C365.862 374.45 360.531 374.285 353.433 373.93C353.231 370.96 352.278 364.184 354.357 362.191Z"/><path fill="#FEFEFE" d="M499.572 837.936C501.458 837.855 502.302 837.704 504.144 838.226C505.873 842.607 502.597 852.899 507.967 854.987C518.274 853.641 511.18 841.508 515.648 837.609C517.451 837.31 517 837.459 518.961 838.166C519.689 839.865 519.38 843.261 519.337 845.267C519.318 848.619 519.791 855.299 519.14 858.009C517.511 858.938 516.331 859.036 514.702 858.134L514.472 856.594C512.282 856.332 508.661 859.484 506.078 859.263C497.941 858.566 499.494 843.571 499.572 837.936Z"/><path fill="#FEFEFE" d="M646.179 837.657C648.07 837.701 648.806 837.801 650.682 838.116L651.438 839.413C654.148 839.271 655.823 836.947 658.767 837.233C664.62 837.801 665.964 843.215 666.069 848.229C666.153 852.22 666.275 855.827 663.813 859.217L662.011 858.997C660.193 855.823 660.606 852.691 660.641 849.038C660.612 846.102 661.082 843.275 657.277 842.183C655.379 841.639 654.234 842.074 652.625 843.134C648.972 848.311 653.593 855.025 649.468 858.417C647.45 858.693 648.348 858.862 646.643 858.161C645.691 856.554 646.047 840.534 646.179 837.657Z"/><path fill="#FEFEFE" d="M335.461 837.477C336.799 837.506 338.214 837.587 339.558 837.644C340.109 838.386 340.254 838.646 340.598 839.464C347.138 838.423 348.552 833.402 354.95 843.059C355.026 845.586 356.08 856.843 354.113 858.159C351.915 858.155 352.234 858.479 350.606 857.516C349.857 855.96 349.864 855.827 349.898 854.097L349.995 848.375C350.128 844.223 348.897 842.519 344.71 841.615C337.944 843.34 341.953 856.09 339.705 858.461C338 858.536 337.603 858.657 335.999 857.983C334.99 856.215 335.458 840.675 335.461 837.477Z"/><path fill="#74C9B9" d="M426.286 444.707C429.803 444.877 433.498 444.918 437.034 445.009C437.114 449.669 438.4 455.769 436.153 459.038C434.692 460.021 432.906 459.708 431.074 459.648L421.186 459.606C421.236 454.908 420.824 450.151 422.676 445.913C424.242 444.622 423.92 445.025 426.286 444.707Z"/><path fill="#74C9B9" d="M371.302 434.714L385.548 434.316C385.567 437.504 385.791 445.908 385.111 448.64L384.115 449.08C379.155 449.444 375.234 449.501 370.308 448.896C370.17 445.698 369.171 436.732 371.302 434.714Z"/><path fill="#6CB1B2" d="M350.897 547.746C357.257 547.605 363.826 547.597 370.172 547.949C367.76 552.972 364.885 557.175 361.773 561.746C360.609 563.639 358.981 565.529 357.573 567.279C355.994 562.773 348.948 550.82 349.445 548.163L350.897 547.746Z"/><path fill="#6CB1B2" d="M456.359 595.032C460.368 595.038 466.077 594.224 469.432 595.991C471.664 598.628 470.59 606.481 470.515 610.574C466.395 610.961 460.868 610.936 456.635 611.037L456.359 595.032Z"/><path fill="#74C9B9" d="M441.399 246.438C443.217 246.401 443.829 246.282 445.581 246.876C446.854 249.708 445.993 262.095 445.854 265.828L434.415 265.978C432.854 265.977 430.38 266.213 429.224 265.422C431.075 261.344 438.531 250.665 441.399 246.438Z"/><path fill="#6CB1B2" d="M456.693 615.468C461.398 615.416 466.155 615.519 470.864 615.582L471.038 631.029L457.011 631.037C457.027 625.908 456.823 620.608 456.693 615.468Z"/><path fill="#FEFEFE" d="M403.573 837.506C407.158 837.469 413.931 838.241 414.756 842.679C411.552 848.665 408.061 840.097 402.838 842.337C398.701 846.327 399.674 855.261 407.744 854.439C409.236 853.737 409.599 852.603 410.418 851.114L415.93 853.967C406.78 862.92 398.388 860.139 395.096 848.119C396.715 841.976 397.783 840.192 403.573 837.506Z"/><path fill="#74C9B9" d="M457.126 259.215C461.534 258.9 467.202 258.955 471.707 258.872C471.712 263.494 471.563 268.317 471.49 272.956C466.339 272.965 462.232 273.01 457.079 272.464C456.92 267.985 457.034 263.688 457.126 259.215Z"/><path fill="#6CB1B2" d="M441.696 582.164C446.451 581.971 450.562 581.923 455.32 582.004C455.35 584.803 455.896 594.272 454.881 596.006L440.981 596.03C440.89 593.047 440.308 584.417 441.696 582.164Z"/><path fill="#FEFEFE" d="M606.74 831.205C608.962 831.184 609.693 830.932 611.278 832.081C610.407 839.403 613.564 836.02 616.569 838.003C616.968 839.582 616.84 839.54 616.362 841.139C609.313 841.976 610.968 847.953 612.015 853.331C613.291 854.728 613.988 854.264 616.452 854.615C617.813 855.818 617.388 855.323 617.708 857.593C616.975 858.065 616.548 858.259 615.732 858.551C604.458 862.591 607.401 848.741 606.118 842.422C605.253 841.959 604.375 841.622 603.447 841.305C602.632 839.984 602.489 838.448 603.286 837.059C604.534 836.941 604.887 836.895 606.098 836.589C607.065 835.161 606.769 833.04 606.74 831.205Z"/><path fill="#FEFEFE" d="M672.584 831.652C681.077 831.251 675.101 834.052 678.8 837.155C680.171 837.207 680.948 837.125 682.204 837.702L681.864 840.966C675.34 842.959 676.939 848.379 678.329 853.751C680.446 855.477 680.222 853.185 683.289 854.266L683.93 856.147C681.007 861.968 675.547 858.569 672.492 854.969C672.544 851.553 672.927 844.997 672.047 841.933C671.099 841.613 670.567 841.41 669.656 840.997C668.951 839.56 669.08 839.587 669.243 837.958C673.108 835.949 672.402 835.555 672.584 831.652Z"/><path fill="#6CB1B2" d="M427.339 624.015C433.707 623.842 439.339 623.816 445.706 623.967C446.003 629.356 445.903 635.943 445.944 641.439C440.026 640.222 431.068 628.98 427.339 624.015Z"/><path fill="#74C9B9" d="M417.969 295.731C422.876 295.635 426.947 295.508 431.86 295.935C431.948 298.699 432.4 306.49 431.394 308.722C426.502 308.636 422.346 308.612 417.429 308.836C417.358 306.239 416.9 297.734 417.969 295.731Z"/><path fill="#6CB1B2" d="M392.504 587.739C397.232 587.501 401.159 587.32 405.913 587.43C406.017 591.67 406.16 596.967 405.794 601.11C401.426 601.014 396.364 600.519 391.955 600.193C391.938 597.656 391.576 589.445 392.504 587.739Z"/><path fill="#74C8B5" d="M345.14 300.217C347.105 300.083 348.434 299.721 350.031 300.759C352.192 303.663 351.063 310.592 350.963 314.812L346.125 314.984L338.524 315.049L338.421 300.591L345.14 300.217Z"/><path fill="#6CB1B2" d="M269.561 363.011C273.982 362.883 278.128 362.846 282.551 362.89L282.553 376.988L269.54 377.077L269.561 363.011Z"/><path fill="#6CB1B2" d="M262.526 477.604C266.687 477.451 271.261 477.57 275.455 477.594L275.448 491.569C271.177 491.494 266.91 491.642 262.64 491.754C262.505 487.022 262.522 482.335 262.526 477.604Z"/><path fill="#74C8B5" d="M398.67 336.209C402.583 336.016 406.758 336.093 410.698 336.097C410.905 338.714 411.477 347.661 409.927 349.577L397.484 349.737C397.402 346.168 397.122 340.144 397.73 336.831L398.67 336.209Z"/><path fill="#6CB1B2" d="M362.471 573.221C367.608 572.888 372.957 572.965 378.119 572.953C377.368 577.631 376.713 582.537 375.403 587.07C373.635 587.781 373.277 587.778 371.45 588.003C367.877 586.983 361.757 577.061 361.687 573.793L362.471 573.221Z"/><path fill="#6CB1B2" d="M433.081 599.747L434.439 599.695C435.649 601.511 435.027 612.468 434.959 615.333L425.951 615.564C424.125 609.95 423.345 606.395 422.289 600.58L433.081 599.747Z"/><path fill="#74C8B5" d="M348.606 231.024C353.067 230.876 357.016 230.93 361.473 231.027L361.504 243.923C357.306 244.009 352.92 243.956 348.704 243.969C348.415 239.659 348.545 235.344 348.606 231.024Z"/><path fill="#74C9B9" d="M421.172 273.16C424.223 272.994 427.373 272.701 430.398 273.037C432.572 274.713 432.476 285.987 431.341 287.847L420.787 287.936C420.769 285.158 420.362 274.911 421.172 273.16Z"/><path fill="#74C9B9" d="M245.501 397.012C249.417 396.921 253.554 397 257.489 397.01C257.508 401.554 257.378 406.142 257.286 410.688L245.443 410.841C245.392 406.293 245.48 401.576 245.501 397.012Z"/><path fill="#6CB1B2" d="M443.39 480.111C452.67 479.803 462.841 481.076 472.642 480.833C472.539 483.227 472.319 485.481 472.098 487.862C466.643 487.355 448.256 486.096 443.534 482.688C443.057 482.344 443.338 480.911 443.39 480.111Z"/><path fill="#FEFEFE" d="M525.127 837.714C529.04 837.48 528.864 837.945 532.599 838.765C533.745 837.72 533.499 837.984 534.953 837.26C537 837.418 536.158 837.032 537.61 838.362C539.649 845.383 531.272 839.229 530.53 848.375C530.601 851.411 531.217 856.152 529.497 858.376C527.612 858.529 527.662 858.54 525.823 858.118C524.423 855.776 525.076 841.56 525.127 837.714Z"/><path fill="#FEFEFE" d="M361.518 828.979C363.496 828.937 363.861 828.945 365.808 829.233C367.163 830.693 366.626 854.369 366.622 858.116C364.877 858.119 363.433 858.337 361.953 857.513C361.29 854.793 361.519 833.078 361.518 828.979Z"/><path fill="#FEFEFE" d="M722.497 829.486C724.619 829.452 724.964 829.438 727.013 829.871C728.132 831.712 727.635 854.521 727.647 857.976C725.941 858.058 724.068 858.338 722.766 857.361C722.034 851.799 722.476 835.809 722.497 829.486Z"/><path fill="#6CB1B2" d="M284.605 439.195C286.292 439.053 289.031 439.257 290.802 439.334C290.978 443.099 291.531 446.886 290.601 450.427C289.421 451.695 289.905 451.303 287.625 451.447L279.745 451.476C279.765 447.169 278.695 444.075 280.08 440.433C281.766 438.983 281.847 439.452 284.605 439.195Z"/><path fill="#74C8B5" d="M350.007 335.008C353.872 334.87 357.982 334.99 361.871 335.038C361.936 338.559 361.642 342.585 361.462 346.149C358.11 346.609 353.495 346.439 350.013 346.414L350.007 335.008Z"/><path fill="#6CB1B2" d="M337.191 469.7C340.526 471.329 351.82 481.297 353.778 484.455L337.411 484.49C337.399 479.594 337.207 474.644 337.191 469.7Z"/><path fill="#74C8B5" d="M422.906 423.507C425.204 423.365 428.363 423.497 430.728 423.526C430.548 429.224 430.789 433.129 428.575 438.52C426.642 439.438 424.509 439.756 422.721 438.518C420.942 434.845 422.407 427.824 422.906 423.507Z"/><path fill="#74C9B9" d="M384.473 465.04C389.741 464.918 394.707 464.923 399.968 464.983C399.945 468.493 400.035 471.184 399.371 474.641C395.531 473.378 384.856 470.514 383.636 466.521L384.473 465.04Z"/><path fill="#FEFEFE" d="M688.091 838.01C689.866 837.955 691.339 837.729 692.965 838.372C693.5 841.264 693.211 854.862 693.193 858.618C691.132 858.656 690.752 858.662 688.751 858.274C687.429 856.433 688.05 841.514 688.091 838.01Z"/><path fill="#74C9B9" d="M372.524 294.955C372.683 294.954 372.841 294.953 373 294.952L373.794 294.963C376.002 294.975 376.697 294.684 378.368 295.934C380.485 299.04 379.532 302.645 379.254 306.693C377.103 306.839 374.615 306.846 372.433 306.907C371.914 302.58 372.181 299.273 372.524 294.955Z"/><path fill="#74C8B5" d="M454.827 240.135L462.338 239.864C462.42 242.245 462.817 246.555 462.065 248.595L461.062 248.946C457.883 249.126 454.614 249.797 453.045 246.64C452.254 245.048 453.944 241.404 454.827 240.135Z"/><path fill="#74C9B9" d="M372.366 315.035C374.566 315.025 377.041 315.192 379.261 315.291C379.382 319.218 379.474 322.09 379.18 325.991L372.132 326.083C372.013 321.832 372.008 319.248 372.366 315.035Z"/><path fill="#6CB1B2" d="M452.927 640.057C455.674 639.839 458.137 639.915 460.881 639.955C460.974 643.405 460.869 647.141 460.834 650.616C458.103 650.247 455.449 648.731 452.967 647.497C452.859 645.089 452.919 642.483 452.927 640.057Z"/><path fill="#6CB1B2" d="M352.52 531.099C357.591 530.681 362.45 530.314 367.541 530.059L366.642 536.935C361.848 535.667 357.566 534.059 352.919 532.377C351.883 532.154 351.384 531.955 350.384 531.587L350.619 531.129L352.52 531.099Z"/><path fill="#3F8A9F" d="M352.919 532.377C351.883 532.154 351.384 531.955 350.384 531.587L350.619 531.129L352.52 531.099L352.919 532.377Z"/><path fill="#6CB1B2" d="M463.185 578.732C465.567 578.593 467.7 578.147 469.608 579.485C470.601 581.835 469.968 583.068 469.038 585.496L463.463 585.905C463.271 583.536 463.247 581.112 463.185 578.732Z"/><path fill="#6CB1B2" d="M442.258 607.652L448.917 607.46L448.439 614.664L442.183 614.573C442.097 612.201 442.185 610.017 442.258 607.652Z"/><path fill="#FEFEFE" d="M689.321 827.732C690.968 826.95 692.938 827.595 693.804 829.199C694.67 830.803 694.129 832.804 692.572 833.752C691.49 834.411 690.134 834.419 689.044 833.774C687.955 833.128 687.31 831.935 687.368 830.67C687.426 829.405 688.177 828.275 689.321 827.732Z"/><path fill="#172237" d="M706.902 258.694C704.858 257.898 703.464 257.365 703.625 255.084L704.648 254.431L706.027 254.754C707.408 256.183 707.346 256.093 707.749 258.048L706.902 258.694Z"/><path fill="#6792A6" d="M102.893 757.627C101.885 759.047 101.114 760.041 99.3377 760.317L98.5566 759.74L98.6127 758.401C99.6205 756.713 100.049 756.626 101.745 755.691C102.126 756.337 102.509 756.982 102.893 757.627Z"/><path fill="#5C6590" d="M952.956 268.451C954.427 269.954 955.851 271.381 957.37 272.836C958.677 273.083 959.021 272.978 959.989 273.816C961.425 279.224 963.43 281.893 966.21 286.423L966.379 284.73C971.863 294.248 991.063 339.521 992.435 348.547C999.445 363.645 1004.58 386.451 1008.1 402.823C1026.82 489.866 1022.32 578.241 996.978 663.302C937.981 861.32 755.077 1007.23 549.381 1022.63C544.041 1023.03 534.32 1023.05 529.466 1024L488.525 1024C485.113 1023.41 480.79 1023.52 477.267 1023.3C442.345 1021.13 403.705 1015.14 370.335 1004.95C363.337 1002.73 353.455 999.25 346.61 997.62C337.985 993.965 326.456 990.889 318.529 986.418L318.711 985.847C316.313 984.536 318.54 984.809 317.2 983.865C316.171 983.14 313.724 981.76 312.571 981.094L312.955 981.098C310.052 979.418 290.445 969.816 288.17 969.458L289.183 970.702C286.154 970.346 283.491 966.803 281.483 964.607C295.013 970.684 307.482 977.383 321.53 983.064C500.733 1055.53 704.624 1017.97 847.95 888.662C996.264 754.849 1050.38 545.698 990.306 355.845C988.565 350.346 984.025 340.615 983.121 335.461C983.68 329.208 957.843 276.204 952.956 268.451Z"/><path fill="#6CB1B2" d="M966.379 284.73C971.863 294.248 991.063 339.521 992.435 348.547L992.023 348.679C990.294 346.835 989.73 341.14 988.84 338.601C986.278 331.296 982.114 324.121 979.993 316.738C979.1 314.831 974.585 311.551 974.048 309.595C972.347 303.396 970.474 291.665 966.21 286.423L966.379 284.73Z"/><path fill="#6792A6" d="M141.22 164.914C142.86 165.478 144.43 162.994 145.797 161.551C163.153 143.281 181.035 125.353 201.569 110.593C211.377 103.542 222.203 96.5441 232.372 89.9669C237.766 86.4782 254.398 72.9532 259.956 72.3957C261.101 73.0119 261.585 73.0738 262.874 73.2743C260.765 74.3927 254.838 77.2365 254.063 79.2007L253.316 79.8138C250.626 81.9823 243.39 85.9532 239.977 88.1613C94.5749 182.247 8.1649 342.681 8.79408 515.691C9.46332 699.719 108.391 868.343 269.025 958.148C272.633 960.165 278.404 962.456 281.483 964.607C283.491 966.803 286.154 970.346 289.183 970.702L288.17 969.458C290.445 969.816 310.052 979.418 312.955 981.098L312.571 981.094C313.724 981.76 316.171 983.14 317.2 983.865C318.54 984.809 316.313 984.536 318.711 985.847L318.529 986.418C288.87 976.657 243.767 950.272 218.624 931.957C107.398 850.939 33.1838 734.015 11.2235 597.874C8.96125 590.953 7.33306 570.281 6.31392 562.413C5.59157 554.857 4.8981 546.233 4.61678 538.693C2.98466 494.946 5.20683 455.033 13.9795 412.077C27.1618 344.672 54.0694 281.64 92.8395 225.009C108.364 202.331 122.343 185.166 141.22 164.914Z"/><path fill="#74C9B9" d="M141.22 164.914C144.652 160.26 151.649 153.858 155.94 149.575C248.982 56.733 380.29 2.6818 511.933 5.22289C538.989 5.74515 563.762 6.3966 590.336 11.2514C591.93 12.2949 591.901 12.3862 593.849 12.7579C595.612 15.3112 595.012 16.7278 597.817 17.053C604.375 17.8131 607.17 16.1076 612.463 20.7869C605.513 19.5852 598.693 17.9788 591.699 16.823C479.625 -1.69798 359.847 18.4748 261.228 75.2146C259.472 76.225 255.674 78.6283 254.063 79.2007C254.838 77.2365 260.765 74.3927 262.874 73.2743C261.585 73.0738 261.101 73.0119 259.956 72.3957C254.398 72.9532 237.766 86.4782 232.372 89.9669C222.203 96.5441 211.377 103.542 201.569 110.593C181.035 125.353 163.153 143.281 145.797 161.551C144.43 162.994 142.86 165.478 141.22 164.914Z"/><path fill="#74C9B9" d="M797.925 99.3576L797.941 98.5549L797.295 97.7829C802.208 98.8777 806.605 102.862 810.423 102.306C820.906 108.718 825.213 113.445 834.329 120.69C853.636 136.033 871.493 153.192 888.605 170.93C895.717 178.302 903.248 188.43 909.688 196.361C926.238 216.74 941.573 237.618 953.881 260.894C957.564 267.859 963.372 277.579 966.379 284.73L966.21 286.423C963.43 281.893 961.425 279.224 959.989 273.816C959.021 272.978 958.677 273.083 957.37 272.836C955.851 271.381 954.427 269.954 952.956 268.451C957.843 276.204 983.68 329.208 983.121 335.461C975.501 316.215 964.998 291.171 954.698 273.116C951.119 265.073 943.813 253.399 939.164 245.781C906.326 191.967 851.209 134.201 798.179 99.8377L797.925 99.3576Z"/><path fill="#74C9B9" d="M590.336 11.2514C597.416 12.088 603.78 13.8411 610.7 15.1771C640.929 21.0131 672.578 30.3778 701.169 41.8888C704.609 43.2872 708.307 44.2059 711.729 45.6259C716.009 47.4021 720.189 50.4129 724.413 52.2128C738.206 58.0906 750.491 64.2662 763.343 72.0533C771.39 76.9289 780.285 81.3143 788.019 86.9325C784.192 87.0162 776.542 83.1654 772.522 83.2978C770.695 82.6145 764.915 79.0549 763.042 77.9699C715.731 50.5538 665.864 32.5296 612.463 20.7869C607.17 16.1076 604.375 17.8131 597.817 17.053C595.012 16.7278 595.612 15.3112 593.849 12.7579C591.901 12.3862 591.93 12.2949 590.336 11.2514Z"/><path fill="#5C6590" d="M798.179 99.8377C851.209 134.201 906.326 191.967 939.164 245.781C943.813 253.399 951.119 265.073 954.698 273.116C952.471 271.955 947.613 262.178 946.083 259.34C937.402 243.245 927.586 229.832 916.935 215.101C893.424 182.582 865.483 154.236 834.785 128.46C830.419 124.795 825.62 120.225 820.684 117.405C819.843 116.995 813.471 118.481 811.788 119.929C816.285 123.851 821.366 127.509 826.055 131.611L826.118 132.498C827.081 132.919 794.011 108.242 792.959 107.303C795.88 107.452 799.71 111.623 802.696 113.491C805.79 113.589 805.801 108.549 805.9 106.09C803.458 104.589 799.211 102.373 798.179 99.8377Z"/><path fill="#74C8B5" d="M772.522 83.2978C776.542 83.1654 784.192 87.0162 788.019 86.9325C793.876 90.7157 805.336 97.9183 810.423 102.306C806.605 102.862 802.208 98.8777 797.295 97.7829L797.941 98.5549L797.925 99.3576C791.526 95.854 779.259 87.5366 772.522 83.2978Z"/></svg>