<svg width="136" height="158" viewBox="0 0 136 158" fill="none" xmlns="http://www.w3.org/2000/svg">
<path fill-rule="evenodd" clip-rule="evenodd" d="M135.937 34.883C135.292 28.116 129.276 22.806 122.203 22.7183C121.18 16.2882 115.599 11.3569 108.885 11.3569H101.373C100.318 11.3569 99.4063 10.6187 99.0507 9.47684C97.2877 3.80848 92.1118 0 86.1709 0H49.8281C43.1164 0 37.5354 4.92887 36.5112 11.3572H29.3851C23.4442 11.3572 18.268 15.1659 16.5053 20.834C16.1502 21.9759 15.2389 22.7141 14.183 22.7141H13.9732C6.82292 22.7141 0.712033 28.0592 0.0612604 34.8827C-0.300782 38.6801 0.954014 42.4662 3.50398 45.2704C6.05554 48.0769 9.69349 49.6869 13.4852 49.6869H25.154C26.1782 56.1149 31.7589 61.0441 38.4709 61.0441H43.361C44.3589 66.2131 48.9149 70.1296 54.371 70.1296H65.87V118.114V122.373H70.1287V118.114V79.2155H72.5422C78.7261 79.2155 83.7572 74.1843 83.7572 68.0004V61.0441H95.2562C101.197 61.0441 106.373 57.2353 108.136 51.5672C108.491 50.4253 109.402 49.6871 110.458 49.6871H122.513C126.305 49.6871 129.943 48.0772 132.495 45.2707C135.045 42.4662 136.3 38.6798 135.937 34.883ZM49.8284 4.25871H86.1712C90.2365 4.25871 93.7783 6.86392 94.9843 10.7417C95.8911 13.6572 98.4586 15.6159 101.373 15.6159H108.885C113.24 15.6159 116.898 18.6495 117.862 22.7141H99.7994C93.8586 22.7141 88.6826 26.5228 86.9197 32.1909C86.5646 33.3328 85.6532 34.071 84.5974 34.071H75.5583C75.5797 34.0482 75.6015 34.026 75.6233 34.0037C75.6523 33.974 75.6814 33.9443 75.7094 33.9135C78.2594 31.109 79.5142 27.3226 79.1522 23.5256C78.5014 16.702 72.3908 11.3569 65.2402 11.3569H40.8517C41.8156 7.29237 45.4732 4.25871 49.8284 4.25871ZM43.1559 56.7853H38.4712C34.116 56.7853 30.4584 53.7519 29.4942 49.6871H43.1559V56.7853ZM45.2854 45.429H13.4855C10.8912 45.4284 8.40204 44.3266 6.65558 42.4059C4.88548 40.4589 4.0493 37.931 4.30164 35.2873C4.74629 30.6251 8.99464 26.9733 13.9737 26.9733H14.1836C17.0979 26.9733 19.6657 25.0146 20.5725 22.0992C21.7787 18.2216 25.3203 15.6161 29.3856 15.6161H65.2402C70.2193 15.6161 74.4677 19.2679 74.9123 23.9304C75.1644 26.5741 74.3285 29.1017 72.5584 31.049C70.8119 32.97 68.3228 34.0718 65.7284 34.0718H60.4877C57.5733 34.0718 55.0056 36.0305 54.0987 38.9459C52.8926 42.8235 49.3508 45.429 45.2854 45.429ZM47.4149 49.5206C52.4352 48.732 56.6168 45.1891 58.1654 40.2103C58.5205 39.0684 59.4319 38.3302 60.4877 38.3302H62.865C60.7911 40.4433 59.4098 43.1932 59.1193 46.2399C58.7569 50.0372 60.012 53.8237 62.5617 56.6281C62.5898 56.6589 62.6188 56.6886 62.6479 56.7183C62.6609 56.7317 62.674 56.745 62.687 56.7585C62.6957 56.7675 62.7043 56.7765 62.7128 56.7856H47.4154L47.4149 49.5206ZM65.8703 65.8712H54.3713C51.2781 65.8712 48.6514 63.8413 47.7499 61.0443H65.8705L65.8703 65.8712ZM79.4988 68.0007C79.4988 71.8363 76.3783 74.957 72.5424 74.957H70.129V61.0446H72.5424H79.4988V68.0007ZM129.344 42.4059C127.597 44.3269 125.108 45.4287 122.514 45.4287H110.459C107.544 45.4287 104.977 47.3877 104.07 50.3029C102.864 54.1804 99.3219 56.7859 95.2568 56.7859H72.5424C69.9481 56.7859 67.459 55.6843 65.7125 53.7631C63.9424 51.8161 63.1062 49.2882 63.3586 46.6445C63.8032 41.9823 68.0516 38.3302 73.0306 38.3302H84.5977C87.5123 38.3302 90.0798 36.3715 90.9866 33.4561C92.1928 29.5785 95.7344 26.9731 99.7997 26.9731H122.026C127.005 26.9731 131.253 30.6248 131.698 35.2873C131.95 37.9305 131.114 40.4587 129.344 42.4059Z" fill="#D7C36B"/>
<path d="M66.7981 118.458L50.5313 125.682C50.333 125.771 50.1835 125.941 50.1222 126.149L47.8159 133.991M47.8159 133.991L39.2187 140.497C39.0341 140.637 38.9256 140.855 38.9256 141.086V145.524M47.8159 133.991L46.134 142.881M69.2007 118.458L82.6438 125.449C82.8067 125.534 82.9322 125.676 82.9959 125.848L85.2997 132.069M85.2997 132.069L95.1488 133.214C95.4419 133.248 95.6866 133.453 95.7714 133.736L96.9969 137.821C97.0464 137.985 97.1517 138.128 97.2949 138.223L101.398 140.959M85.2997 132.069V139.109C85.2997 139.22 85.3245 139.329 85.3725 139.429L87.9766 144.854C88.1023 145.116 88.063 145.427 87.8762 145.649L83.5202 150.835C83.2966 151.101 83.2888 151.487 83.5013 151.762L87.2219 156.577M68.4801 120.775L66.8277 126.441C66.808 126.508 66.7981 126.578 66.7981 126.648V131.812C66.7981 131.978 66.7421 132.14 66.6391 132.27L63.1939 136.634M63.1939 136.634V141.56C63.1939 141.639 63.1811 141.718 63.156 141.794L61.9925 145.284M63.1939 136.634L68.2858 142.189C68.4107 142.325 68.4801 142.503 68.4801 142.688V146.86C68.4801 146.93 68.4699 147 68.45 147.068L66.0772 155.135M69.2007 120.775L76.7542 127.621C76.8433 127.701 76.9113 127.803 76.9524 127.916L78.6248 132.515C78.7361 132.821 78.6341 133.163 78.3737 133.359L76.5599 134.719C76.2182 134.975 76.1642 135.467 76.4421 135.791L78.8121 138.556M88.183 145.524L94.4303 151.291M66.7981 120.775L59.1399 127.041C58.9683 127.182 58.8688 127.392 58.8688 127.613V132.325C58.8688 132.471 58.8256 132.614 58.7447 132.735L54.3192 139.374C54.1625 139.609 54.1534 139.912 54.2957 140.156L57.4272 145.524M57.4272 145.524H50.459M57.4272 145.524L53.4065 152.672C53.2305 152.985 53.3048 153.379 53.5827 153.606L55.7452 155.376" stroke="#D7C36B" stroke-width="2.21737"/>
</svg>
