<svg width="126" height="115" viewBox="0 0 126 115" fill="none" xmlns="http://www.w3.org/2000/svg">
<path d="M62.8293 17.0429C58.1219 11.0189 41.9232 -0.18971 14.5593 2.69299C14.1088 2.74045 13.7611 3.12274 13.7611 3.57571V14.9456M62.8293 17.0429V101.777M62.8293 17.0429C67.5368 11.0189 83.7354 -0.18971 111.099 2.69299C111.55 2.74045 111.897 3.12274 111.897 3.57571V14.9456M62.8293 101.777C47.6629 91.1748 24.9265 87.6418 14.6167 87.132C14.1374 87.1083 13.7611 86.7153 13.7611 86.2354V14.9456M62.8293 101.777C77.9957 91.1748 100.732 87.6418 111.042 87.132C111.521 87.1083 111.897 86.7153 111.897 86.2354V14.9456M13.7611 14.9456H3.11919C2.62699 14.9456 2.22799 15.3446 2.22799 15.8368V102.983C2.22799 103.476 2.62699 103.875 3.11919 103.875H49.9856C50.4778 103.875 50.8765 104.279 51.0175 104.75C51.6433 106.842 54.5104 110.2 62.6576 111.811C62.769 111.833 62.8896 111.833 63.001 111.811C71.1482 110.2 74.0153 106.842 74.6411 104.75C74.7821 104.279 75.1808 103.875 75.673 103.875H122.539C123.032 103.875 123.431 103.476 123.431 102.983V15.8368C123.431 15.3446 123.032 14.9456 122.539 14.9456H111.897" stroke="#D7C36B" stroke-width="4.45598"/>
</svg>
