<svg width="115" height="115" viewBox="0 0 115 115" fill="none" xmlns="http://www.w3.org/2000/svg">
<path d="M73.8801 67.2402C74.7635 69.6143 77.6565 75.6542 82.1616 80.8219H83.1554L76.3646 69.8903L78.849 70.2216L86.1367 82.3125C78.6282 80.5458 62.5179 79.6956 58.1453 90.4284L58.142 90.3605C57.6456 80.1025 57.0231 67.2402 73.8801 67.2402Z" fill="#D7C36B"/>
<path d="M40.2418 67.2402C39.3584 69.6143 36.4654 75.6542 31.9603 80.8219H30.9665L37.7573 69.8903L35.2729 70.2216L27.9852 82.3125C35.4937 80.5458 51.604 79.6956 55.9766 90.4284L55.9799 90.3605C56.4763 80.1025 57.0988 67.2402 40.2418 67.2402Z" fill="#D7C36B"/>
<path fill-rule="evenodd" clip-rule="evenodd" d="M55.9766 92.7472C54.7068 88.3856 48.3576 80.3581 33.1197 83.1407L31.4634 86.6189H29.3102L25.1695 93.9066H51.0077C51.3942 94.9004 52.929 96.888 55.9766 96.888H58.1453C61.1929 96.888 62.7277 94.9004 63.1142 93.9066H88.9524L84.8117 86.6189H82.6585L81.0022 83.1407C65.7643 80.3581 59.4151 88.3856 58.1453 92.7472C57.244 93.1604 56.7712 93.1429 55.9766 92.7472ZM36.9292 85.6251C46.9995 81.7825 52.94 87.7783 54.6516 91.2565C47.7614 85.9564 37.6469 87.3919 33.4509 88.7721C42.7262 84.3995 49.5722 86.9502 51.8358 88.7721C47.9932 84.267 40.297 84.797 36.9292 85.6251ZM28.9789 92.2503C54.6516 84.6314 53.8234 94.9004 55.9766 93.5754C56.9319 93.9474 57.403 93.9337 58.1453 93.5754C60.2985 94.9004 59.4703 84.6314 85.1429 92.2503H62.286C62.0652 93.1337 60.9279 94.9667 58.1453 95.2317H55.9766C53.194 94.9667 52.0567 93.1337 51.8358 92.2503H28.9789ZM77.1927 85.6251C67.1224 81.7825 61.1818 87.7783 59.4703 91.2565C66.3605 85.9564 76.475 87.3919 80.6709 88.7721C71.3957 84.3995 64.5496 86.9502 62.286 88.7721C66.1286 84.267 73.8249 84.797 77.1927 85.6251Z" fill="#D7C36B"/>
<path d="M56.9683 81.7971C56.9581 77.9874 57.3035 66.4364 58.6445 62.2915C60.3208 57.1103 62.6066 55.8005 67.3306 56.196C63.6733 55.4341 62.759 55.2817 58.4921 57.4151C57.8318 52.9959 58.4921 45.2241 66.4163 44.005C66.975 43.9542 68.3059 43.9441 69.1592 44.3098C67.0766 43.1415 62.0275 42.1154 58.4921 47.3576C57.7302 45.1733 57.5473 40.0125 62.9114 36.8428C61.7938 36.9952 59.1321 38.0924 57.4254 41.2621C55.7187 44.4317 56.9683 42.4812 56.9683 42.4812C56.9683 42.4812 57.4254 46.2908 56.9683 41.2621C56.5111 36.2333 52.5998 33.3379 51.4823 33.1855C56.8463 36.3552 56.0539 48.3735 55.292 50.5577C53.1586 49.1862 52.549 48.8814 48.8917 49.3386C51.9395 49.6434 52.8538 50.2529 53.6157 50.8625C56.1174 52.8638 56.4095 56.196 55.7492 60.6152C52.5795 57.4456 47.1647 58.3294 45.5392 58.7866C52.2442 59.3961 53.7681 59.8533 55.4444 65.0345C56.7854 69.1794 56.9581 77.9874 56.9683 81.7971Z" fill="#D7C36B"/>
<path d="M56.9748 26.4805C55.3494 27.2932 52.4947 29.772 54.0795 33.1855C55.5526 33.2871 58.1939 32.0883 56.9748 26.4805Z" fill="#D7C36B"/>
<path d="M44.8862 35.8184C46.2146 37.0585 49.5332 38.8698 52.1799 36.1943C51.7616 34.7782 49.717 32.7206 44.8862 35.8184Z" fill="#D7C36B"/>
<path d="M50.1442 27.5253C49.6559 28.6168 49.2368 31.0691 51.4671 32.1454C52.2592 31.5828 53.1036 29.871 50.1442 27.5253Z" fill="#D7C36B"/>
<path d="M66.7223 39.2543C65.889 38.3966 63.766 37.0996 61.9406 38.7731C62.1701 39.7172 63.4478 41.1352 66.7223 39.2543Z" fill="#D7C36B"/>
<path d="M42.7157 62.0815C43.2721 61.023 44.941 59.178 47.1655 60.2662C47.2127 61.2367 46.3888 62.9584 42.7157 62.0815Z" fill="#D7C36B"/>
<path d="M70.0748 57.8456C69.2414 56.9879 67.1185 55.6909 65.2931 57.3644C65.5226 58.3085 66.8003 59.7265 70.0748 57.8456Z" fill="#D7C36B"/>
<path d="M63.786 32.4412C63.9437 33.6265 63.6482 36.0967 61.2039 36.4944C60.6045 35.7297 60.2817 33.8485 63.786 32.4412Z" fill="#D7C36B"/>
<path d="M43.603 54.715C43.7873 55.8966 44.7701 58.182 47.227 57.8714C47.5853 56.9683 47.3623 55.0727 43.603 54.715Z" fill="#D7C36B"/>
<path d="M67.1385 51.033C67.2962 52.2183 67.0007 54.6885 64.5564 55.0862C63.957 54.3215 63.6343 52.4403 67.1385 51.033Z" fill="#D7C36B"/>
<path d="M71.046 39.6128C70.8464 40.7918 69.8339 43.0643 67.3813 42.7218C67.0347 41.8141 67.2824 39.9215 71.046 39.6128Z" fill="#D7C36B"/>
<path d="M71.1131 42.1824C70.3741 42.9799 68.546 44.249 67.3813 42.7218C67.6753 41.8497 68.8804 40.476 71.1131 42.1824Z" fill="#D7C36B"/>
<path d="M46.0137 45.5172C47.2043 45.4049 49.6613 45.7947 49.9652 48.2524C49.1782 48.8221 47.286 49.0727 46.0137 45.5172Z" fill="#D7C36B"/>
<path d="M48.4784 44.7873C49.44 45.2948 51.139 46.7321 49.9652 48.2524C49.0468 48.1941 47.4081 47.3856 48.4784 44.7873Z" fill="#D7C36B"/>
<path d="M67.0164 35.8184C66.2761 35.3332 64.5333 34.7387 63.4846 36.2421C63.8027 36.8871 64.9544 37.7054 67.0164 35.8184Z" fill="#D7C36B"/>
<path d="M41.4609 58.8695C42.0336 58.1946 43.5368 57.131 44.9683 58.276C44.8458 58.9846 43.9728 60.0955 41.4609 58.8695Z" fill="#D7C36B"/>
<path d="M70.4645 47.0182C70.3704 46.1381 69.7254 44.4133 67.8979 44.5553C67.6007 45.2102 67.6979 46.6196 70.4645 47.0182Z" fill="#D7C36B"/>
<path d="M53.7103 44.9482C52.8367 45.0911 51.1506 45.8312 51.394 47.6479C52.0645 47.9082 53.4663 47.7326 53.7103 44.9482Z" fill="#D7C36B"/>
<path d="M45.9975 51.5843C46.3992 50.7956 47.617 49.4143 49.2737 50.1986C49.3178 50.9164 48.7243 52.1985 45.9975 51.5843Z" fill="#D7C36B"/>
<path d="M72.0033 44.5289C71.633 44.1206 70.6756 43.4897 69.8084 44.2317C69.8992 44.6702 70.4653 45.3436 72.0033 44.5289Z" fill="#D7C36B"/>
<path d="M46.9251 32.1232C47.3943 32.8738 48.728 34.1434 50.3099 33.2173C50.2911 32.4984 49.5878 31.2731 46.9251 32.1232Z" fill="#D7C36B"/>
<circle cx="57.1557" cy="57.1559" r="54.796" stroke="#D7C36B" stroke-width="4.71928"/>
<path d="M15.9543 73.306L14.6092 69.5113L15.8052 69.0873L17.1504 72.882L15.9543 73.306ZM20.0219 71.7295L20.523 73.143L12.9119 75.841L10.9423 70.2849L12.1275 69.8647L13.596 74.0074L20.0219 71.7295ZM18.1378 66.0805L10.2255 67.6939L9.92581 66.2245L17.8382 64.611L18.1378 66.0805ZM17.5183 62.4286L9.44885 62.7336L9.40223 61.5001L15.4244 56.2046L15.4475 56.8155L9.23406 57.0504L9.17786 55.5633L17.2473 55.2583L17.2939 56.4918L11.2717 61.7873L11.2486 61.1763L17.4621 60.9415L17.5183 62.4286ZM17.1085 54.4435L9.81489 49.4218L10.0794 47.9691L18.677 45.8293L18.396 47.3728L10.6745 49.1445L10.7819 48.5543L17.3854 52.9226L17.1085 54.4435ZM15.5696 52.463L14.4842 51.855L15.2654 47.5649L16.4954 47.3785L15.5696 52.463ZM18.9549 45.0828L11.5241 41.9218L12.0073 40.786L19.7114 38.5597L19.4721 39.1223L13.7503 36.6884L14.3329 35.319L21.7637 38.48L21.2805 39.6158L13.5764 41.8421L13.8157 41.2794L19.5375 43.7134L18.9549 45.0828ZM24.9097 33.7607C24.5538 34.2625 24.1407 34.672 23.6706 34.9891C23.1987 35.2955 22.6987 35.5019 22.1707 35.6082C21.6408 35.7038 21.1066 35.6926 20.568 35.5746C20.0294 35.4565 19.5155 35.224 19.0262 34.8769C18.5369 34.5298 18.1476 34.1216 17.8582 33.6523C17.5688 33.183 17.387 32.6816 17.3128 32.1481C17.2324 31.6101 17.2619 31.0701 17.4014 30.5278C17.5346 29.9811 17.7815 29.4537 18.1419 28.9457C18.5246 28.4062 18.968 27.9805 19.4721 27.6687C19.9699 27.3523 20.5097 27.1695 21.0916 27.1203L21.2742 28.4379C20.848 28.4938 20.4675 28.6247 20.133 28.8305C19.7921 29.0319 19.4993 29.3051 19.2546 29.6501C19.0098 29.9951 18.8416 30.3519 18.7498 30.7206C18.6625 31.0829 18.6467 31.4442 18.7024 31.8043C18.7625 32.1581 18.8915 32.4947 19.0892 32.8142C19.2914 33.1273 19.5619 33.404 19.9006 33.6443C20.2393 33.8846 20.5899 34.0484 20.9522 34.1357C21.319 34.2168 21.6794 34.2272 22.0332 34.167C22.3915 34.1006 22.7272 33.9663 23.0403 33.7641C23.3579 33.5557 23.6391 33.2789 23.8838 32.934C24.1286 32.589 24.2928 32.2245 24.3765 31.8407C24.4539 31.4525 24.4454 31.0457 24.351 30.6205L25.6644 30.3641C25.8039 30.9251 25.8098 31.495 25.682 32.0738C25.5543 32.6527 25.2969 33.215 24.9097 33.7607ZM26.6472 35.658C26.5271 35.8273 26.397 35.9708 26.257 36.0884C26.1233 36.2104 25.9828 36.3088 25.8356 36.3834L25.434 35.7732C25.5553 35.7085 25.6642 35.6348 25.7604 35.5522C25.8612 35.4634 25.9538 35.3594 26.0384 35.2402C26.1674 35.0583 26.2273 34.9075 26.2179 34.7877C26.2086 34.6679 26.1538 34.5724 26.0534 34.5013C25.9593 34.4345 25.8551 34.4219 25.7408 34.4634C25.631 34.4986 25.5137 34.604 25.3891 34.7797L25.1822 35.0714L24.4027 34.1365L24.8566 33.4967L25.29 34.0022C25.5172 33.7484 25.7496 33.6069 25.9873 33.5775C26.2358 33.5463 26.4604 33.6019 26.6611 33.7443C26.9371 33.94 27.0712 34.2096 27.0634 34.5529C27.0618 34.9007 26.9231 35.2691 26.6472 35.658ZM26.5804 31.0392L23.7479 22.6493L24.8298 21.6444L32.9962 25.0808L31.8466 26.1484L24.6023 22.9421L25.0418 22.5339L27.7131 29.9872L26.5804 31.0392ZM26.5344 28.5315L26.0295 27.3946L29.2247 24.4271L30.3212 25.0145L26.5344 28.5315ZM35.9324 23.3596C35.3952 23.6901 34.8347 23.9311 34.2508 24.0827C33.6628 24.2278 33.1501 24.2678 32.7128 24.2028L32.5444 22.9384C32.9525 22.9853 33.4039 22.9558 33.8987 22.8501C34.3935 22.7443 34.8537 22.5604 35.2795 22.2985C35.6397 22.0768 35.907 21.8582 36.0814 21.6426C36.2557 21.4269 36.355 21.2214 36.3792 21.0259C36.3994 20.8239 36.3571 20.6377 36.2523 20.4674C36.1233 20.2578 35.9452 20.1371 35.718 20.1053C35.4868 20.067 35.2278 20.0864 34.9411 20.1635C34.6569 20.23 34.3473 20.3211 34.0123 20.437C33.6838 20.5488 33.3459 20.6528 32.9988 20.749C32.6541 20.8346 32.3183 20.8832 31.9913 20.8948C31.6669 20.8958 31.3568 20.8247 31.061 20.6816C30.7653 20.5385 30.5046 20.2835 30.2789 19.9167C30.0492 19.5433 29.9379 19.1423 29.945 18.7135C29.9546 18.2742 30.106 17.8379 30.3993 17.4046C30.6951 16.9607 31.1574 16.5454 31.7862 16.1585C32.1989 15.9046 32.6405 15.7051 33.1111 15.56C33.5817 15.415 34.0281 15.348 34.4503 15.3591L34.658 16.5993C34.2373 16.6053 33.837 16.6665 33.4571 16.7829C33.0732 16.8927 32.7306 17.0403 32.4292 17.2257C32.0755 17.4433 31.8135 17.6632 31.6432 17.8854C31.4794 18.1035 31.3875 18.3136 31.3673 18.5156C31.3537 18.7136 31.4013 18.9011 31.5101 19.0779C31.6391 19.2875 31.8159 19.4135 32.0406 19.4558C32.2678 19.4876 32.5215 19.467 32.8016 19.3939C33.0883 19.3169 33.4012 19.2237 33.7403 19.1144C34.0754 18.9985 34.4132 18.8945 34.7538 18.8024C35.1009 18.7061 35.4347 18.6543 35.7552 18.6468C36.0822 18.6352 36.3902 18.703 36.6794 18.8501C36.9752 18.9932 37.2339 19.2449 37.4555 19.6052C37.6812 19.972 37.7892 20.3751 37.7796 20.8144C37.7725 21.2432 37.6211 21.6795 37.3253 22.1233C37.0255 22.5606 36.5612 22.9727 35.9324 23.3596ZM45.61 18.9639C45.0043 19.1397 44.3999 19.223 43.7967 19.2138C43.1913 19.1973 42.6864 19.0995 42.2821 18.9206L42.456 17.6569C42.8369 17.8106 43.28 17.9023 43.785 17.9319C44.2901 17.9615 44.7827 17.9067 45.2628 17.7674C45.669 17.6495 45.9849 17.5098 46.2103 17.3483C46.4357 17.1868 46.586 17.0151 46.6613 16.833C46.7345 16.6437 46.7432 16.4529 46.6875 16.2609C46.6189 16.0245 46.4793 15.8608 46.2687 15.7698C46.056 15.6714 45.8012 15.6212 45.5043 15.6192C45.2127 15.6078 44.89 15.6133 44.5362 15.6359C44.1898 15.6563 43.8365 15.6668 43.4762 15.6672C43.1212 15.6581 42.7846 15.6156 42.4663 15.5398C42.1533 15.4545 41.8732 15.3035 41.6262 15.0869C41.3792 14.8703 41.1956 14.5552 41.0756 14.1416C40.9535 13.7206 40.9528 13.3044 41.0737 12.8929C41.1997 12.472 41.4618 12.0916 41.8597 11.752C42.2628 11.4027 42.819 11.1253 43.528 10.9195C43.9933 10.7845 44.4721 10.7096 44.9643 10.6949C45.4566 10.6802 45.9047 10.7344 46.3087 10.8574L46.1792 12.1082C45.772 12.0021 45.3699 11.9546 44.9727 11.9657C44.5734 11.9695 44.2039 12.0207 43.8641 12.1193C43.4653 12.235 43.1542 12.3773 42.931 12.5462C42.7151 12.7129 42.5706 12.891 42.4974 13.0804C42.4316 13.2677 42.4277 13.461 42.4855 13.6604C42.5541 13.8968 42.6911 14.0652 42.8964 14.1658C43.107 14.2568 43.3571 14.3044 43.6465 14.3085C43.9434 14.3104 44.2698 14.3038 44.6257 14.2886C44.9795 14.266 45.3329 14.2556 45.6857 14.2573C46.0459 14.2569 46.3815 14.2957 46.6924 14.3736C47.0107 14.4494 47.2897 14.5967 47.5293 14.8154C47.7764 15.032 47.9588 15.3435 48.0767 15.7497C48.1967 16.1633 48.1937 16.5806 48.0676 17.0016C47.9467 17.413 47.6847 17.7933 47.2816 18.1425C46.8762 18.4844 46.3191 18.7582 45.61 18.9639ZM51.0187 12.8475L55.0144 12.4586L55.1339 13.6871L51.1383 14.076L51.0187 12.8475ZM51.4688 16.2808L56.0041 15.8394L56.1259 17.0909L50.098 17.6776L49.3157 9.64039L55.1829 9.06935L55.3047 10.3209L50.9301 10.7466L51.4688 16.2808ZM57.5414 17.0945L58.5995 9.08891L59.8232 9.25065L62.5504 15.5573L61.9099 15.4726L66.1247 10.0835L67.3485 10.2453L66.3018 18.2524L64.8951 18.0664L65.65 12.2666L65.9474 12.3059L62.3742 16.8023L61.7109 16.7147L59.3828 11.4383L59.7259 11.4836L58.9595 17.2819L57.5414 17.0945ZM74.6247 16.4152L78.2595 18.1466L77.7137 19.2922L74.079 17.5609L74.6247 16.4152ZM72.864 20.4066L71.5101 19.7617L74.9827 12.4713L80.3047 15.0064L79.764 16.1416L75.7959 14.2514L72.864 20.4066ZM77.9737 22.9885L82.7932 16.5092L85.459 18.4921C86.0329 18.919 86.4546 19.3765 86.7242 19.8645C86.9999 20.3572 87.1203 20.8589 87.0854 21.3697C87.0505 21.8805 86.8564 22.3735 86.5029 22.8487C86.1495 23.3238 85.7332 23.6515 85.254 23.8319C84.7794 24.006 84.2665 24.0319 83.7154 23.9095C83.175 23.7855 82.6179 23.51 82.044 23.0832L80.0447 21.596L80.9878 21.4492L79.177 23.8836L77.9737 22.9885ZM82.213 26.1419L82.3235 22.5722L83.6101 23.5292L83.5089 27.1058L82.213 26.1419ZM80.8914 21.5788L80.7814 20.6056L82.7252 22.0515C83.2559 22.4462 83.7388 22.6281 84.174 22.5972C84.6153 22.5708 84.9874 22.354 85.2904 21.9467C85.5979 21.5333 85.6986 21.1145 85.5923 20.6904C85.4922 20.2709 85.1768 19.8637 84.6461 19.469L82.7023 18.0231L83.6798 17.8301L80.8914 21.5788ZM86.8563 30.9396C86.4447 30.4618 86.1444 29.9541 85.9554 29.4166C85.7664 28.879 85.6838 28.3411 85.7075 27.803C85.737 27.2599 85.8709 26.7437 86.1091 26.2542C86.3531 25.7598 86.7023 25.3168 87.1568 24.9253C87.6113 24.5338 88.0982 24.2565 88.6175 24.0934C89.1426 23.9253 89.673 23.8693 90.2087 23.9256C90.7502 23.9768 91.2728 24.1357 91.7765 24.4022C92.2801 24.6687 92.7352 25.038 93.1418 25.5099C93.5534 25.9877 93.8512 26.4925 94.0352 27.0243C94.2242 27.5618 94.3039 28.1022 94.2744 28.6453C94.2507 29.1834 94.1168 29.6997 93.8728 30.1941C93.6346 30.6835 93.2883 31.124 92.8338 31.5155C92.3793 31.907 91.8895 32.1868 91.3644 32.355C90.8392 32.5231 90.3088 32.579 89.7732 32.5228C89.2375 32.4666 88.7178 32.3052 88.2142 32.0386C87.7155 31.7779 87.2629 31.4116 86.8563 30.9396ZM87.8452 30.0726C88.1112 30.3814 88.4096 30.6217 88.7404 30.7936C89.0711 30.9654 89.4155 31.0647 89.7734 31.0913C90.1371 31.113 90.4924 31.0658 90.8391 30.9498C91.1967 30.8347 91.5328 30.6416 91.8475 30.3705C92.1621 30.0995 92.3999 29.7982 92.561 29.4666C92.7328 29.1358 92.8321 28.7915 92.8587 28.4336C92.8912 28.0706 92.8469 27.7129 92.7259 27.3603C92.6049 27.0078 92.4114 26.6771 92.1454 26.3683C91.8794 26.0594 91.581 25.8191 91.2502 25.6472C90.9245 25.4812 90.5772 25.3845 90.2085 25.357C89.8505 25.3304 89.4928 25.3746 89.1352 25.4898C88.7885 25.6057 88.4578 25.7993 88.1431 26.0703C87.8343 26.3363 87.594 26.6347 87.4221 26.9655C87.2553 27.3021 87.1556 27.6518 87.1232 28.0148C87.0965 28.3727 87.1437 28.7279 87.2647 29.0805C87.3857 29.4331 87.5792 29.7637 87.8452 30.0726ZM90.5152 35.2267L97.6826 31.5069L98.2512 32.6024L95.0652 39.9617L94.7836 39.419L100.302 36.5547L100.988 37.8756L93.8206 41.5955L93.252 40.4999L96.438 33.1406L96.7197 33.6833L91.2008 36.5476L90.5152 35.2267ZM95.0711 45.0112L101.618 43.1498L100.886 40.5755L102.106 40.2284L103.981 46.8196L102.76 47.1666L102.028 44.5923L95.4812 46.4537L95.0711 45.0112ZM101.208 51.011L101.592 55.0072L100.363 55.1252L99.9792 51.129L101.208 51.011ZM97.774 51.4567L98.2096 55.9926L96.9579 56.1128L96.379 50.0841L104.417 49.3122L104.981 55.1801L103.729 55.3003L103.309 50.9252L97.774 51.4567ZM97.0131 57.8766L105.079 58.2643L105.007 59.7623L96.9411 59.3745L97.0131 57.8766ZM96.7148 61.6063L104.625 63.2319L103.956 66.4863C103.812 67.1869 103.576 67.7625 103.248 68.2133C102.918 68.6716 102.514 68.9929 102.037 69.1774C101.559 69.3619 101.03 69.3946 100.45 69.2754C99.8701 69.1562 99.397 68.9176 99.0309 68.5597C98.6723 68.2034 98.4319 67.7496 98.3096 67.1984C98.1933 66.6564 98.2072 66.035 98.3512 65.3344L98.8528 62.8937L99.3848 63.6861L96.4129 63.0753L96.7148 61.6063ZM95.6512 66.7817L98.9324 65.3714L98.6096 66.9421L95.3261 68.3636L95.6512 66.7817ZM99.2266 63.6535L100.062 63.1421L99.5742 65.5151C99.441 66.163 99.4805 66.6775 99.6927 67.0587C99.9033 67.4475 100.257 67.6929 100.754 67.7951C101.259 67.8988 101.681 67.8128 102.02 67.5371C102.358 67.2689 102.594 66.8109 102.727 66.163L103.215 63.79L103.803 64.5941L99.2266 63.6535ZM95.3653 68.6399L101.355 75.1619L100.773 76.519L91.9148 76.6871L92.533 75.2452L100.455 75.2405L100.219 75.7919L94.7561 70.0606L95.3653 68.6399ZM96.4237 70.9137L97.346 71.7485L95.6276 75.7562L94.387 75.6636L96.4237 70.9137Z" fill="#D7C36B"/>
<path d="M86.1476 77.1661C90.1895 71.3433 92.5129 64.246 92.3963 56.6179C92.0996 37.2171 76.1316 21.7302 56.7308 22.0268C37.33 22.3235 21.843 38.2914 22.1397 57.6922C22.2512 64.9868 24.5782 71.7281 28.4702 77.2851" stroke="#D7C36B" stroke-width="1.04873"/>
</svg>
