<svg width="151" height="151" viewBox="0 0 151 151" fill="none" xmlns="http://www.w3.org/2000/svg">
<g clip-path="url(#clip0_25_114)">
<path d="M49.5591 103.002C56.1105 98.5809 60.4271 91.0894 60.4271 82.6084C60.4271 69.051 49.3976 58.0215 35.8402 58.0215C22.2828 58.0215 11.2533 69.051 11.2533 82.6084C11.2533 91.0894 15.5698 98.5809 22.1212 103.002C15.121 105 9.97882 111.449 9.97882 119.082V148.363C9.97882 149.699 11.0614 150.781 12.3968 150.781H59.2836C60.6189 150.781 61.7015 149.699 61.7015 148.363V119.082C61.7015 111.449 56.5596 105 49.5591 103.002ZM41.4154 110.54L38.4787 107.195H44.3521L41.4154 110.54ZM32.043 107.195L37.8706 113.832L32.4154 117.901L29.7852 107.195H32.043ZM49.8625 108.249C50.1701 108.389 50.4709 108.539 50.7639 108.703L49.9034 117.519L44.9605 113.832L49.8625 108.249ZM16.0892 82.6084C16.0892 71.7175 24.9493 62.8574 35.8402 62.8574C46.7311 62.8574 55.5912 71.7175 55.5912 82.6084C55.5912 93.4993 46.7311 102.359 35.8402 102.359C24.9493 102.359 16.0892 93.4993 16.0892 82.6084ZM14.8148 119.082C14.8148 113.16 19.1678 108.237 24.8416 107.342L28.5895 122.597C28.7829 123.384 29.3578 124.022 30.1209 124.296C30.3865 124.391 30.6625 124.438 30.9372 124.438C31.4511 124.438 31.9595 124.274 32.3831 123.958L38.9974 119.024V145.945H26.7538V121.977C26.7538 120.641 25.6711 119.559 24.3358 119.559C23.0004 119.559 21.9178 120.641 21.9178 121.977V145.945H14.8148V119.082ZM56.8656 145.945H43.8337V119.024L50.448 123.958C50.8729 124.275 51.3813 124.438 51.8939 124.438C52.225 124.438 52.558 124.37 52.8714 124.231C53.6693 123.879 54.2155 123.123 54.3003 122.255L55.2014 113.025C56.2572 114.8 56.8659 116.87 56.8659 119.082L56.8656 145.945Z" fill="#D7C36B"/>
<path d="M67.6772 119.54C63.4643 116.581 60.6885 111.567 60.6885 105.89C60.6885 96.8159 67.7811 89.4336 76.4993 89.4336C85.2175 89.4336 92.31 96.8159 92.31 105.89C92.31 111.567 89.5343 116.581 85.3213 119.54C89.8228 120.877 93.1296 125.194 93.1296 130.303V149.902C93.1296 150.795 92.4334 151.52 91.5747 151.52H61.4239C60.5652 151.52 59.869 150.795 59.869 149.902V130.303C59.869 125.194 63.1755 120.877 67.6772 119.54ZM72.9141 124.585L74.8026 122.347H71.0257L72.9141 124.585ZM78.9411 122.347L75.1936 126.789L78.7016 129.512L80.3929 122.347H78.9411ZM67.4822 123.052C67.2844 123.145 67.091 123.246 66.9025 123.356L67.4558 129.257L70.6344 126.789L67.4822 123.052ZM89.2003 105.89C89.2003 98.6007 83.5027 92.6704 76.4993 92.6704C69.4958 92.6704 63.7983 98.6007 63.7983 105.89C63.7983 113.18 69.4958 119.11 76.4993 119.11C83.5027 119.11 89.2003 113.18 89.2003 105.89ZM90.0198 130.303C90.0198 126.339 87.2206 123.044 83.572 122.445L81.1619 132.655C81.0375 133.182 80.6678 133.609 80.1771 133.793C80.0063 133.856 79.8288 133.888 79.6522 133.888C79.3217 133.888 78.9948 133.778 78.7224 133.567L74.469 130.264V148.283H82.3424V132.24C82.3424 131.346 83.0385 130.622 83.8973 130.622C84.756 130.622 85.4521 131.346 85.4521 132.24V148.283H90.0198V130.303ZM62.9788 148.283H71.359V130.264L67.1057 133.567C66.8324 133.779 66.5055 133.888 66.1758 133.888C65.9629 133.888 65.7488 133.842 65.5473 133.749C65.0341 133.513 64.6829 133.008 64.6284 132.426L64.049 126.248C63.37 127.437 62.9786 128.823 62.9786 130.303L62.9788 148.283Z" fill="#D7C36B" stroke="#D7C36B" stroke-width="0.739124"/>
<path d="M49.2354 125.871C48.8508 124.96 47.9374 124.355 46.9435 124.38C45.888 124.407 44.9585 125.137 44.6741 126.152C44.3969 127.141 44.8041 128.24 45.66 128.809C46.5066 129.371 47.6521 129.339 48.4616 128.724C49.325 128.069 49.6606 126.875 49.2354 125.871C49.297 126.016 49.1741 125.726 49.2354 125.871Z" fill="#D7C36B"/>
<path d="M34.9759 78.1079C34.599 77.2159 33.7172 76.6152 32.7433 76.6152C31.7729 76.6152 30.8834 77.2155 30.5107 78.1079C30.1135 79.0593 30.3869 80.2032 31.1729 80.8712C31.9724 81.5505 33.1498 81.6349 34.0358 81.0733C35.0126 80.4546 35.4279 79.1789 34.9759 78.1079C35.0371 78.2533 34.9146 77.9632 34.9759 78.1079Z" fill="#D7C36B"/>
<path d="M46.3245 79.9589C46.7091 80.8694 47.6237 81.4755 48.6174 81.45C49.69 81.4226 50.6423 80.6614 50.9019 79.6198C51.1334 78.6903 50.7787 77.685 50.0163 77.106C49.1787 76.4703 47.9861 76.4574 47.1366 77.077C46.2403 77.7305 45.9009 78.9337 46.3245 79.9589C46.3854 80.1037 46.2632 79.8106 46.3245 79.9589Z" fill="#D7C36B"/>
<path d="M108.693 56.4723C109.089 56.7241 109.54 56.8508 109.992 56.8508C110.392 56.8508 110.792 56.7518 111.155 56.5525C111.929 56.1279 112.41 55.3155 112.41 54.4328V48.8092H114.87C119.012 48.8092 122.382 45.4395 122.382 41.298V16.0192C122.382 11.8774 119.012 8.50772 114.87 8.50772H89.8209V7.51184C89.8209 3.36969 86.4512 0 82.3091 0H37.9344C33.7923 0 30.4226 3.37001 30.4226 7.51184V32.7877C30.4226 36.9299 33.7926 40.2996 37.9344 40.2996H40.3943V45.9254C40.3943 46.8081 40.8753 47.6209 41.6494 48.0455C42.0124 48.2447 42.4125 48.3434 42.812 48.3434C43.2646 48.3434 43.7163 48.2163 44.1116 47.9645L56.1389 40.2996H62.9837V41.298C62.9837 45.4399 66.3534 48.8092 70.4949 48.8092H96.6641L108.693 56.4723ZM55.4341 35.4636C54.9737 35.4636 54.5227 35.5952 54.1345 35.8424L45.2303 41.5173V37.8816C45.2303 36.5462 44.1477 35.4636 42.8123 35.4636H37.9344C36.4588 35.4636 35.2586 34.2633 35.2586 32.7877V7.51184C35.2586 6.03623 36.4592 4.83595 37.9344 4.83595H82.3091C83.7844 4.83595 84.985 6.03655 84.985 7.51184V8.50772H70.4952C67.2206 8.50772 64.4306 10.6149 63.4051 13.5439H44.9533C43.618 13.5439 42.5354 14.6265 42.5354 15.9619C42.5354 17.2972 43.618 18.3798 44.9533 18.3798H62.984V22.4227H44.9533C43.618 22.4227 42.5354 23.5053 42.5354 24.8407C42.5354 26.176 43.618 27.2586 44.9533 27.2586H62.984V35.4636H55.4341ZM67.8196 41.298V16.0192C67.8196 14.544 69.0199 13.3437 70.4949 13.3437H114.87C116.345 13.3437 117.546 14.544 117.546 16.0192V41.2977C117.546 42.773 116.345 43.9729 114.87 43.9729H109.992C108.656 43.9729 107.574 45.0556 107.574 46.3909V50.0253L98.6678 44.3514C98.2797 44.1042 97.8289 43.9729 97.3689 43.9729H70.4952C69.0199 43.9733 67.8196 42.773 67.8196 41.298Z" fill="#D7C36B"/>
<path d="M77.5164 26.8877H107.849C109.185 26.8877 110.267 25.8051 110.267 24.4697C110.267 23.1344 109.185 22.0518 107.849 22.0518H77.5164C76.1807 22.0518 75.0984 23.1344 75.0984 24.4697C75.0984 25.8051 76.181 26.8877 77.5164 26.8877Z" fill="#D7C36B"/>
<path d="M110.267 33.3481C110.267 32.0128 109.185 30.9302 107.849 30.9302H77.5164C76.1807 30.9302 75.0984 32.0128 75.0984 33.3481C75.0984 34.6835 76.1807 35.7661 77.5164 35.7661H107.849C109.185 35.7661 110.267 34.6835 110.267 33.3481Z" fill="#D7C36B"/>
<path d="M128.66 103.002C135.212 98.5809 139.528 91.0894 139.528 82.6084C139.528 69.051 128.499 58.0215 114.941 58.0215C101.384 58.0215 90.3539 69.051 90.3539 82.6084C90.3539 91.0894 94.6705 98.5809 101.222 103.002C94.2214 105 89.0795 111.449 89.0795 119.082V148.363C89.0795 149.699 90.1618 150.781 91.4974 150.781H138.385C139.72 150.781 140.803 149.699 140.803 148.363V119.082C140.803 111.449 135.661 105 128.66 103.002ZM123.562 107.195C121.725 110.089 118.497 111.951 114.941 111.951C111.384 111.951 108.157 110.089 106.319 107.195H123.562ZM95.1902 82.6084C95.1902 71.7175 104.05 62.8574 114.941 62.8574C125.832 62.8574 134.692 71.7175 134.692 82.6084C134.692 93.4993 125.832 102.359 114.941 102.359C104.05 102.359 95.1902 93.4993 95.1902 82.6084ZM93.9157 119.082C93.9157 114.122 96.9705 109.863 101.297 108.085C103.73 113.31 109.035 116.787 114.941 116.787C120.847 116.787 126.152 113.31 128.585 108.085C132.912 109.863 135.967 114.122 135.967 119.082V127.665H127.497V121.977C127.497 120.642 126.415 119.559 125.079 119.559C123.743 119.559 122.661 120.642 122.661 121.977V145.946H93.9161V119.082H93.9157ZM127.497 145.945V132.5H135.967V145.945H127.497Z" fill="#D7C36B"/>
<path d="M128.66 103.002C135.212 98.5809 139.528 91.0894 139.528 82.6084C139.528 69.051 128.499 58.0215 114.941 58.0215C101.384 58.0215 90.3539 69.051 90.3539 82.6084C90.3539 91.0894 94.6705 98.5809 101.222 103.002C94.2214 105 89.0795 111.449 89.0795 119.082V148.363C89.0795 149.699 90.1618 150.781 91.4974 150.781H138.385C139.72 150.781 140.803 149.699 140.803 148.363V119.082C140.803 111.449 135.661 105 128.66 103.002ZM123.562 107.195C121.725 110.089 118.497 111.951 114.941 111.951C111.384 111.951 108.157 110.089 106.319 107.195H123.562ZM95.1902 82.6084C95.1902 71.7175 104.05 62.8574 114.941 62.8574C125.832 62.8574 134.692 71.7175 134.692 82.6084C134.692 93.4993 125.832 102.359 114.941 102.359C104.05 102.359 95.1902 93.4993 95.1902 82.6084ZM93.9157 119.082C93.9157 114.122 96.9705 109.863 101.297 108.085C103.73 113.31 109.035 116.787 114.941 116.787C120.847 116.787 126.152 113.31 128.585 108.085C132.912 109.863 135.967 114.122 135.967 119.082V127.665H127.497V121.977C127.497 120.642 126.415 119.559 125.079 119.559C123.743 119.559 122.661 120.642 122.661 121.977V145.946H93.9161V119.082H93.9157ZM127.497 145.945V132.5H135.967V145.945H127.497Z" fill="#D7C36B"/>
<path d="M115.804 79.9588C116.23 80.9663 117.303 81.5889 118.392 81.4244C119.349 81.28 120.142 80.563 120.381 79.6271C120.632 78.6447 120.218 77.586 119.379 77.0218C118.428 76.3822 117.14 76.5305 116.326 77.3216C115.651 78.0167 115.432 79.0571 115.804 79.9588C115.865 80.1036 115.743 79.8105 115.804 79.9588Z" fill="#D7C36B"/>
<path d="M81.5855 102.648C81.8916 103.552 82.6614 104.111 83.4432 103.964C84.1295 103.834 84.6989 103.191 84.8705 102.351C85.0508 101.469 84.7535 100.519 84.1514 100.013C83.4689 99.439 82.5443 99.5721 81.9603 100.282C81.4761 100.906 81.319 101.839 81.5855 102.648C81.6297 102.778 81.5418 102.515 81.5855 102.648Z" fill="#D7C36B"/>
<path d="M104.594 78.5592C104.536 78.2491 104.405 77.9541 104.237 77.6888C103.017 75.9037 100.158 76.5327 99.8342 78.6779C99.5399 80.6265 101.699 82.114 103.416 81.1346C104.31 80.6239 104.801 79.5735 104.594 78.5592C104.626 78.7172 104.565 78.4045 104.594 78.5592Z" fill="#D7C36B"/>
<path d="M72.7574 101.381C72.7158 101.101 72.6213 100.834 72.5008 100.595C71.6261 98.9819 69.5763 99.5502 69.3442 101.488C69.1332 103.248 70.6813 104.592 71.9123 103.707C72.5538 103.246 72.9054 102.297 72.7574 101.381C72.7803 101.524 72.7366 101.241 72.7574 101.381Z" fill="#D7C36B"/>
<path d="M115.417 87.317C114.662 86.5616 113.436 86.5616 112.681 87.317C112.035 87.9631 111.176 88.319 110.262 88.319C109.348 88.319 108.489 87.9631 107.843 87.317C107.088 86.5616 105.862 86.5616 105.108 87.317C104.352 88.0724 104.352 89.2972 105.108 90.0525C106.528 91.4737 108.395 92.1842 110.262 92.1842C112.129 92.1842 113.996 91.4737 115.417 90.0525C116.172 89.2972 116.172 88.0727 115.417 87.317Z" fill="#D7C36B"/>
<path d="M81.0273 107.905C80.4555 107.303 79.5275 107.303 78.9559 107.905C78.4664 108.42 77.8157 108.704 77.1238 108.704C76.4318 108.704 75.7811 108.42 75.2916 107.905C74.7198 107.303 73.7918 107.303 73.2202 107.905C72.6479 108.507 72.6479 109.484 73.2202 110.086C74.2962 111.219 75.7101 111.786 77.1238 111.786C78.5374 111.786 79.9513 111.219 81.0273 110.086C81.5996 109.484 81.5996 108.507 81.0273 107.905Z" fill="#D7C36B"/>
</g>
<defs>
<clipPath id="clip0_25_114">
<rect width="150.781" height="150.781" fill="white"/>
</clipPath>
</defs>
</svg>
