<svg width="134" height="124" viewBox="0 0 134 124" fill="none" xmlns="http://www.w3.org/2000/svg">
<path d="M128.281 0.370117C131.11 0.370142 133.412 2.67085 133.412 5.5C133.412 7.93078 131.711 9.96319 129.44 10.4902V78.3848C131.712 78.9117 133.412 80.9458 133.412 83.377C133.412 86.2062 131.11 88.5068 128.281 88.5068H93.7675L111.203 121.297H111.204C111.596 122.036 111.315 122.953 110.577 123.346H110.576C110.351 123.465 110.108 123.523 109.867 123.523C109.359 123.523 108.866 123.267 108.582 122.813L108.528 122.72L90.329 88.5068H69.8827V122.008C69.8827 122.844 69.2047 123.523 68.368 123.523C67.5312 123.523 66.8524 122.844 66.8524 122.008V88.5068H46.3817L28.2069 122.72C27.9341 123.232 27.4092 123.523 26.868 123.523C26.6277 123.523 26.3841 123.466 26.1581 123.346C25.4197 122.953 25.1388 122.036 25.5311 121.297H25.5321L42.9677 88.5068H5.49988C2.67078 88.5067 0.370049 86.2061 0.369995 83.377C0.369995 80.9458 2.06978 78.912 4.3407 78.3848V10.4902C2.06996 9.96313 0.369995 7.93099 0.369995 5.5C0.370125 2.67092 2.6708 0.370247 5.49988 0.370117H128.281ZM5.49988 81.2764C4.34168 81.2765 3.39929 82.2189 3.39929 83.377C3.39935 84.5349 4.34166 85.4774 5.49988 85.4775H128.281C129.439 85.4775 130.383 84.5349 130.383 83.377C130.383 82.2189 129.439 81.2764 128.281 81.2764H5.49988ZM7.37097 13.708H26.576C27.4127 13.7083 28.0907 14.3863 28.0907 15.2227C28.0906 16.0589 27.4126 16.737 26.576 16.7373H7.37097V71.5059H22.5692C23.406 71.5059 24.0846 72.1842 24.0848 73.0205C24.0848 73.857 23.4061 74.5361 22.5692 74.5361H7.37097V78.2461H126.411V71.3018H88.0477C87.2109 71.3018 86.5331 70.6236 86.5331 69.7871C86.5332 68.9507 87.2109 68.2725 88.0477 68.2725H126.411V10.6309H7.37097V13.708ZM5.49988 3.39941C4.34176 3.39954 3.39942 4.3421 3.39929 5.5C3.39929 6.65796 4.34163 7.60046 5.49988 7.60059H128.281C129.439 7.60059 130.383 6.65804 130.383 5.5C130.383 4.34202 129.439 3.39941 128.281 3.39941H5.49988Z" fill="#D7C36B" stroke="#D7C36B" stroke-width="0.739124"/>
<path d="M41.6899 19.4429C55.6011 19.4429 66.9184 30.7593 66.9185 44.6704C66.9185 58.5816 55.6011 69.8989 41.6899 69.8989C27.7788 69.8989 16.4624 58.5816 16.4624 44.6704C16.4625 30.7593 27.7789 19.4429 41.6899 19.4429ZM30.5063 63.8354C33.7929 65.7609 37.6134 66.8686 41.6899 66.8687C50.8941 66.8687 58.8034 61.2341 62.1626 53.2329L42.2944 46.4751L30.5063 63.8354ZM20.4653 51.1548C21.8085 55.5433 24.4749 59.3583 28.0024 62.1304L38.2612 47.021L20.4653 51.1548ZM43.2046 43.5854L63.1372 50.3638C63.6212 48.5451 63.8882 46.6389 63.8882 44.6704C63.8881 32.9398 54.7409 23.3049 43.2046 22.5239V43.5854ZM40.1753 22.5239C28.6391 23.3051 19.4918 32.9399 19.4917 44.6704C19.4917 45.873 19.5934 47.0523 19.7798 48.2046L40.1753 43.4673V22.5239Z" fill="#D7C36B" stroke="#D7C36B" stroke-width="0.739124"/>
<path d="M113.099 30.4917C113.936 30.4917 114.614 31.1699 114.614 32.0063C114.614 32.8427 113.936 33.521 113.099 33.521H77.1255C76.2888 33.521 75.611 32.843 75.6109 32.0063C75.6109 31.1699 76.2887 30.4917 77.1255 30.4917H113.099Z" fill="#D7C36B" stroke="#D7C36B" stroke-width="0.739124"/>
<path d="M113.099 50.7012C113.936 50.7012 114.614 51.3793 114.614 52.2158C114.614 53.0526 113.936 53.7305 113.099 53.7305H77.1255C76.2888 53.7305 75.611 53.0522 75.6109 52.2158C75.6109 51.3793 76.2887 50.7012 77.1255 50.7012H113.099Z" fill="#D7C36B" stroke="#D7C36B" stroke-width="0.739124"/>
</svg>
